<?xml version="1.0" encoding="UTF-8" standalone="no"?>
<svg
   version="1.0"
   width="74pt"
   height="56pt"
   viewBox="0 0 74 56"
   preserveAspectRatio="xMidYMid"
   id="svg49"
   sodipodi:docname="survey.svg"
   inkscape:version="1.3.2 (091e20ef0f, 2023-11-25, custom)"
   xmlns:inkscape="http://www.inkscape.org/namespaces/inkscape"
   xmlns:sodipodi="http://sodipodi.sourceforge.net/DTD/sodipodi-0.dtd"
   xmlns="http://www.w3.org/2000/svg"
   xmlns:svg="http://www.w3.org/2000/svg">
  <defs
     id="defs49" />
  <sodipodi:namedview
     id="namedview49"
     pagecolor="#ffffff"
     bordercolor="#000000"
     borderopacity="0.25"
     inkscape:showpageshadow="2"
     inkscape:pageopacity="0.0"
     inkscape:pagecheckerboard="0"
     inkscape:deskcolor="#d1d1d1"
     inkscape:document-units="pt"
     showguides="true"
     inkscape:zoom="8"
     inkscape:cx="42"
     inkscape:cy="27.5"
     inkscape:window-width="1920"
     inkscape:window-height="996"
     inkscape:window-x="1080"
     inkscape:window-y="48"
     inkscape:window-maximized="1"
     inkscape:current-layer="svg49">
    <sodipodi:guide
       position="37.000001,50.637503"
       orientation="-1,0"
       id="guide119"
       inkscape:locked="false"
       inkscape:label=""
       inkscape:color="rgb(0,134,229)" />
  </sodipodi:namedview>
  <metadata
     id="metadata1">
Created by potrace 1.10, written by Peter Selinger 2001-2011
</metadata>
  <g
     transform="matrix(0.01498521,0,0,-0.01498521,22.415544,50.5387)"
     fill="#000000"
     stroke="none"
     id="g49"
     inkscape:label="original"
     sodipodi:insensitive="true"
     style="display:none;opacity:1">
    <path
       d="m 663,2943 c -7,-3 -13,-11 -13,-19 0,-8 -4,-14 -10,-14 -5,0 -13,-12 -16,-27 -4,-16 -18,-45 -31,-65 l -23,-37 26,-28 c 14,-15 34,-36 44,-47 19,-18 19,-20 -5,-65 -22,-44 -75,-211 -75,-237 0,-17 53,-25 62,-10 7,13 103,-7 278,-60 47,-14 101,-29 120,-34 19,-4 105,-25 190,-45 267,-62 310,-75 310,-94 0,-12 2,-13 8,-3 12,18 42,4 35,-16 -12,-31 44,21 77,71 45,69 54,104 29,117 -15,8 -23,7 -35,-5 -27,-27 -57,-16 -120,43 -34,31 -74,68 -90,81 -16,14 -68,59 -115,100 -207,184 -234,206 -244,205 -6,-1 -11,6 -10,15 2,25 32,64 43,57 16,-9 2,32 -15,46 -8,7 -25,13 -36,15 -21,3 -21,2 -3,-12 17,-13 17,-15 3,-21 -9,-3 -14,-10 -11,-15 3,-5 -9,-7 -25,-5 -20,2 -54,24 -95,60 l -65,57 -38,-42 c -21,-23 -39,-45 -41,-50 -9,-23 -61,17 -59,45 2,20 -31,46 -50,39 z m 37,-30 c 0,-2 -9,-7 -21,-11 -20,-8 -20,-9 -3,-23 11,-8 15,-9 10,-1 -4,6 -4,12 1,12 4,0 13,-11 20,-25 6,-14 8,-23 3,-20 -4,3 -10,-7 -13,-21 -5,-30 13,-27 29,5 10,19 13,20 24,6 15,-18 30,-20 30,-2 1,19 59,85 60,67 1,-12 3,-11 14,3 8,11 17,14 20,8 4,-5 -12,-20 -34,-34 -22,-13 -37,-27 -33,-30 3,-4 -2,-14 -13,-21 -10,-8 -16,-18 -11,-22 4,-4 23,11 43,34 19,23 41,42 48,42 6,0 35,-24 64,-53 l 52,-53 -25,-24 c -38,-36 -19,-76 48,-101 15,-6 27,-15 27,-21 0,-5 4,-6 10,-3 5,3 33,-12 61,-35 28,-22 44,-40 35,-40 -9,0 -16,-4 -16,-10 0,-13 13,-13 27,1 15,15 56,-10 42,-27 -12,-15 -1,-44 17,-44 8,0 14,-4 14,-10 0,-5 8,-10 18,-10 13,1 11,5 -10,23 -24,20 -38,47 -23,47 18,0 61,-38 58,-50 -4,-13 -3,-13 6,0 5,8 13,11 16,8 10,-10 -4,-28 -21,-28 -25,0 -5,-20 47,-44 31,-15 51,-20 55,-14 7,11 -16,29 -28,22 -11,-7 -48,19 -48,33 0,16 22,17 38,1 6,-6 14,-10 16,-7 5,4 -95,72 -207,140 -45,28 -48,32 -42,61 5,20 4,28 -3,24 -6,-4 -10,2 -9,14 1,22 21,27 33,8 4,-7 3,-8 -4,-4 -7,4 -12,3 -12,-1 0,-5 33,-36 73,-70 39,-34 83,-72 97,-85 23,-22 121,-97 184,-141 15,-10 23,-23 20,-29 -5,-7 -2,-8 5,-3 13,8 54,-28 44,-39 -3,-3 13,-8 36,-12 46,-7 49,-15 21,-51 -11,-15 -19,-28 -17,-30 7,-7 37,9 32,17 -3,4 8,23 25,41 16,19 28,27 26,19 -4,-26 -42,-92 -52,-91 -5,1 -9,-4 -9,-11 0,-6 -8,-12 -18,-14 -13,-2 -17,2 -13,12 3,8 1,14 -4,14 -6,0 -10,-5 -10,-10 0,-16 -31,-8 -57,14 -15,13 -20,24 -14,34 10,18 -9,62 -27,62 -7,0 -65,34 -128,75 -63,41 -118,75 -122,75 -4,0 -23,13 -43,29 -19,16 -52,33 -73,36 -20,4 -35,12 -33,19 11,34 -164,106 -184,75 -4,-7 -21,4 -44,29 -21,22 -44,38 -51,35 -6,-2 -15,0 -19,6 -3,6 -17,11 -30,11 -13,0 -27,5 -30,10 -3,6 -14,10 -25,10 -21,0 -31,20 -24,47 4,13 0,20 -9,20 -9,0 -13,-6 -10,-15 5,-12 3,-12 -15,-1 -18,11 -19,15 -7,22 8,4 15,17 15,27 0,10 5,22 10,25 6,4 8,11 5,16 -9,14 28,57 48,56 9,-1 17,-3 17,-4 z m 350,-183 c 11,-11 20,-33 20,-48 0,-15 5,-33 12,-40 9,-9 9,-12 0,-12 -7,0 -12,5 -12,11 0,5 -4,7 -10,4 -5,-3 -29,7 -52,22 -24,15 -45,28 -46,29 -2,2 4,14 15,28 22,31 46,33 73,6 z m -356,-36 c 8,-3 12,-12 10,-19 -3,-8 -13,-11 -22,-8 -11,5 -14,2 -9,-10 6,-16 -9,-65 -24,-77 -3,-3 -11,-14 -18,-25 -13,-20 -13,-20 -6,0 4,11 8,25 8,32 0,7 4,10 8,8 10,-7 25,43 24,78 -1,28 3,31 29,21 z m 86,-38 c 7,-9 18,-16 25,-16 7,0 18,-7 25,-15 13,-16 14,-14 -85,-131 -47,-56 -52,-59 -79,-49 -24,8 -27,14 -23,40 7,41 42,133 67,173 21,34 39,34 70,-2 z m 200,-73 c 51,-29 61,-50 35,-76 -8,-8 -19,-35 -24,-59 -13,-55 -13,-68 -1,-68 6,0 10,11 10,24 0,14 4,27 9,30 5,3 7,16 3,29 -5,20 -4,21 13,7 14,-11 17,-11 11,-1 -5,8 -3,17 5,22 11,7 11,9 1,9 -7,0 -10,5 -7,10 12,19 60,-2 200,-88 77,-47 145,-90 150,-95 6,-4 25,-17 43,-28 31,-18 50,-44 40,-54 -3,-3 -58,9 -124,26 -65,17 -156,40 -202,51 l -83,20 7,36 c 4,21 10,41 15,47 12,12 12,62 0,69 -10,7 -31,-59 -35,-109 -1,-24 -16,-36 -31,-27 -5,4 -21,7 -35,8 -41,2 -250,58 -247,66 1,4 34,45 72,92 81,98 95,103 175,59 z M 826,2385 c 88,-18 121,-30 107,-38 -6,-4 -28,0 -49,8 -22,8 -61,21 -89,29 -67,19 -56,19 31,1 z m 224,-44 c 0,-6 21,-16 48,-25 l 47,-14 h -40 c -66,1 -83,7 -78,29 5,19 23,27 23,10 z"
       id="path1" />
    <path
       d="m 809,2777 c 12,-15 11,-17 -4,-17 -10,0 -15,-6 -13,-17 2,-10 10,-18 18,-18 8,0 14,8 14,18 -2,21 -1,21 34,-1 25,-14 27,-19 16,-30 -8,-7 -14,-19 -14,-27 0,-15 26,-45 40,-45 15,0 40,31 40,51 0,18 -36,46 -110,84 -31,16 -33,16 -21,2 z m 117,-96 c -9,-14 -56,-14 -56,0 0,6 7,8 16,5 8,-3 12,-2 9,4 -12,19 6,33 22,17 9,-8 12,-20 9,-26 z"
       id="path2" />
    <path
       d="m 1040,2920 c 0,-5 4,-10 10,-10 18,0 79,-61 74,-75 -3,-7 -1,-16 5,-20 6,-3 14,1 18,11 4,12 -7,30 -40,60 -45,43 -67,54 -67,34 z"
       id="path3" />
    <path
       d="m 182,2343 c -25,-48 -52,-158 -52,-207 0,-34 2,-38 21,-33 11,3 42,-1 67,-9 59,-17 55,-18 49,6 -3,11 3,56 12,100 10,44 14,80 9,80 -4,0 -8,-12 -8,-26 0,-14 -4,-22 -10,-19 -6,4 -7,-5 -4,-24 5,-25 3,-29 -12,-27 -11,2 -13,1 -6,-1 9,-3 12,-13 8,-26 -3,-12 -6,-28 -6,-34 0,-7 -7,-13 -15,-13 -8,0 -15,4 -15,10 0,5 -7,7 -15,4 -8,-4 -15,-1 -15,6 0,7 -7,10 -14,7 -9,-4 -17,1 -20,11 -8,24 11,134 24,142 6,4 8,14 5,22 -4,9 -2,19 4,23 6,3 11,2 11,-3 0,-8 87,-27 110,-24 15,2 9,22 -7,22 -32,0 -94,21 -88,30 3,5 1,11 -4,15 -6,3 -19,-11 -29,-32 z"
       id="path4" />
    <path
       d="m 117,2358 c -7,-4 -3,-10 13,-16 28,-11 40,-7 40,11 0,14 -34,17 -53,5 z"
       id="path5" />
    <path
       d="m 86,2331 c -11,-17 -36,-166 -31,-182 4,-11 15,-19 28,-19 20,1 20,2 5,11 -19,11 -25,39 -8,39 6,0 10,5 10,11 0,5 -3,8 -8,5 -4,-2 -6,13 -4,35 2,21 8,39 14,39 5,0 6,10 3,21 -5,13 -3,19 3,15 5,-3 15,0 21,8 9,11 7,15 -9,19 -11,3 -22,2 -24,-2 z"
       id="path6" />
    <path
       d="m 339,2315 c -7,-16 -16,-32 -20,-35 -9,-7 -39,-147 -39,-181 0,-32 3,-34 28,-20 14,7 18,25 20,81 2,56 8,80 28,111 13,21 20,39 15,39 -5,0 -11,8 -14,18 -3,13 -7,10 -18,-13 z"
       id="path7" />
    <path
       d="m 370,2282 c 0,-6 17,-16 38,-21 37,-10 306,-76 350,-86 12,-3 22,-1 22,4 0,5 -10,11 -22,14 -13,3 -59,14 -103,25 -44,11 -116,30 -160,42 -112,32 -125,34 -125,22 z"
       id="path8" />
    <path
       d="m 830,2271 c 0,-6 4,-11 10,-11 5,0 7,-7 4,-15 -4,-8 -2,-15 4,-15 6,0 13,6 15,13 4,9 6,9 6,-1 1,-7 6,-10 11,-7 6,3 10,-1 10,-9 0,-9 -4,-16 -10,-16 -5,0 -10,-6 -10,-12 1,-7 13,2 29,20 28,32 46,42 39,20 -3,-7 11,-23 31,-36 29,-20 43,-23 85,-18 33,3 45,2 36,-4 -13,-8 -12,-10 3,-10 9,0 17,5 17,10 0,6 8,10 17,10 30,0 0,17 -69,39 -78,25 -79,25 -76,9 2,-6 -5,-14 -15,-16 -16,-3 -17,-1 -8,16 9,17 6,20 -27,26 -20,3 -52,9 -69,12 -21,4 -33,2 -33,-5 z"
       id="path9" />
    <path
       d="m 1087,2251 c 6,-25 31,-35 50,-19 16,13 9,19 -34,32 -18,6 -20,3 -16,-13 z"
       id="path10" />
    <path
       d="m 395,2230 c 3,-5 19,-10 35,-10 33,0 80,-19 80,-32 0,-5 -17,-6 -37,-3 -21,3 -7,-4 31,-15 38,-12 74,-19 80,-17 6,3 -6,8 -26,12 -22,4 -38,13 -38,21 0,11 8,10 43,-2 23,-9 51,-17 62,-19 59,-9 91,-17 100,-26 6,-6 -1,-8 -17,-7 -15,1 -25,5 -22,9 2,4 -6,5 -18,1 -20,-5 -19,-7 12,-18 51,-18 60,-17 60,11 0,19 -7,26 -27,31 -16,3 -53,12 -83,20 -30,7 -66,15 -80,18 -14,2 -52,11 -85,20 -69,19 -78,19 -70,6 z"
       id="path11" />
    <path
       d="m 344,2209 c -3,-5 2,-9 10,-9 8,0 26,-12 40,-27 14,-15 29,-24 32,-20 4,4 -1,14 -12,23 -15,12 -16,15 -2,10 9,-2 19,2 22,10 3,8 2,13 -2,10 -5,-3 -25,-1 -45,4 -21,4 -39,4 -43,-1 z"
       id="path12" />
    <path
       d="m 810,2199 c 0,-5 -4,-7 -10,-4 -11,7 -14,-8 -4,-18 8,-7 54,13 54,25 0,4 -9,8 -20,8 -11,0 -20,-5 -20,-11 z"
       id="path13" />
    <path
       d="m 855,2171 c 3,-2 -2,-16 -10,-31 -11,-22 -20,-27 -36,-23 -16,5 -20,3 -14,-6 4,-7 16,-11 26,-8 11,3 19,1 19,-4 0,-5 -5,-9 -11,-9 -6,0 3,-11 19,-25 69,-58 155,-4 121,77 -6,15 -21,30 -33,33 -23,6 -87,2 -81,-4 z m 83,-17 c 40,-28 18,-104 -30,-104 -23,0 -58,35 -58,58 0,21 35,62 53,62 7,0 23,-7 35,-16 z"
       id="path14" />
    <path
       d="m 1064,2155 c 5,-11 9,-25 9,-32 0,-7 17,-11 43,-11 36,0 41,2 37,18 -6,23 -32,34 -48,20 -9,-8 -18,-6 -31,7 -17,17 -18,17 -10,-2 z"
       id="path15" />
    <path
       d="m 427,2139 c -13,-8 -15,-21 -11,-72 14,-163 94,-301 225,-386 52,-34 55,-39 43,-56 -8,-10 -14,-27 -14,-38 0,-13 -5,-17 -15,-13 -8,3 -22,9 -30,12 -12,5 -15,-2 -15,-35 0,-40 1,-40 25,-29 27,12 33,28 13,29 -7,0 -3,4 10,9 12,5 22,14 22,20 0,5 8,10 18,11 11,0 12,2 4,6 -10,4 -10,10 2,28 12,18 13,25 3,29 -8,3 -7,8 6,16 9,6 17,20 17,30 0,18 6,22 26,19 8,-1 24,22 24,34 0,4 -9,7 -21,7 -11,0 -18,-4 -15,-9 3,-5 -1,-11 -9,-15 -8,-3 -15,-11 -15,-18 0,-7 -7,-21 -15,-32 -14,-18 -16,-18 -62,12 -44,28 -125,102 -112,102 6,0 134,-33 174,-45 18,-5 23,1 37,44 14,44 14,51 1,51 -8,0 -12,4 -9,9 4,5 -3,7 -14,4 -12,-3 -20,0 -20,6 0,7 -4,10 -9,7 -4,-3 -17,2 -27,10 -16,13 -16,15 -2,10 10,-3 20,-1 23,3 6,10 47,2 55,-10 13,-18 50,4 58,35 7,25 14,31 33,29 13,-1 18,1 11,3 -6,3 -10,10 -6,15 3,5 -2,9 -10,9 -9,0 -16,-4 -16,-10 0,-5 -7,-10 -16,-10 -8,0 -12,4 -9,10 3,6 -1,7 -10,4 -11,-5 -14,-2 -8,12 4,11 3,15 -5,10 -6,-3 -13,-2 -17,4 -3,5 -15,10 -26,10 -14,0 -19,7 -20,28 l -1,27 -7,-30 c -6,-29 -7,-29 -20,-10 -7,11 -10,13 -8,5 4,-12 -7,-19 -39,-26 -24,-6 -44,-8 -44,-5 0,3 -15,7 -33,8 -28,1 -29,0 -9,-7 27,-11 29,-24 2,-17 -11,3 -23,1 -26,-4 -7,-12 20,-11 86,4 30,7 64,13 75,12 11,-1 32,-2 48,-3 17,-1 27,-8 27,-18 0,-9 9,-18 20,-21 21,-6 24,-12 14,-36 -4,-11 -13,-13 -42,-6 -20,4 -68,6 -107,4 -91,-5 -125,1 -161,30 -27,22 -27,24 -5,18 21,-5 22,-4 12,15 -10,18 -8,23 16,36 l 28,15 -45,-2 c -34,-2 -45,2 -48,15 -3,14 5,16 55,11 43,-4 74,0 120,16 34,12 75,21 90,22 24,0 25,1 8,8 -39,16 -133,22 -141,9 -5,-7 -2,-9 8,-6 8,4 21,2 29,-3 21,-13 -7,-29 -52,-29 -70,0 -146,51 -91,62 15,3 15,4 1,10 -8,3 -23,2 -32,-3 z m 143,-249 c 101,-27 172,-51 167,-56 -2,-3 -36,4 -75,15 -39,11 -81,17 -93,14 -15,-4 -20,-3 -15,5 5,8 -1,12 -16,12 -14,0 -33,7 -44,15 -25,19 -13,18 76,-5 z m 135,-70 c 19,0 19,-7 0,-26 -13,-14 -15,-13 -15,3 0,15 -2,16 -10,3 -8,-13 -10,-12 -10,3 0,16 -7,18 -54,14 -63,-6 -70,-2 -49,23 15,17 17,17 69,-1 29,-11 60,-19 69,-19 z"
       id="path16" />
    <path
       d="m 495,2140 c 3,-5 1,-10 -5,-10 -6,0 -8,-4 -5,-10 3,-5 13,-10 21,-10 9,0 12,5 8,11 -4,8 1,9 17,5 23,-7 23,-7 5,8 -22,18 -51,22 -41,6 z"
       id="path17" />
    <path
       d="m 1230,2135 c 0,-21 30,-31 40,-14 11,17 3,29 -21,29 -10,0 -19,-7 -19,-15 z"
       id="path18" />
    <path
       d="m 1305,2111 c 7,-35 7,-35 -31,-20 -42,15 -74,4 -74,-26 0,-14 -4,-25 -8,-25 -17,0 -21,13 -11,32 10,18 9,18 -11,8 -15,-8 -20,-8 -16,-1 4,6 3,11 -3,11 -5,0 -12,-6 -14,-12 -4,-10 -8,-10 -15,1 -8,11 -10,11 -15,0 -4,-10 -6,-10 -6,-1 -1,14 -31,17 -31,2 0,-6 7,-13 15,-16 10,-4 13,-13 10,-25 -4,-11 -2,-19 4,-19 6,0 11,7 11,15 0,8 5,15 11,15 6,0 8,-11 5,-27 -5,-24 2,-33 48,-70 60,-49 66,-51 66,-24 0,13 -9,21 -31,26 -24,5 -30,12 -27,28 1,12 -2,22 -7,22 -6,0 -9,-3 -7,-7 1,-5 -2,-8 -7,-8 -9,0 -21,33 -21,59 0,11 4,9 14,-4 9,-13 26,-19 52,-20 39,0 39,0 36,-37 -2,-27 1,-38 11,-38 9,0 13,10 10,33 -2,25 -1,28 6,12 7,-18 9,-16 15,12 9,37 17,45 35,34 17,-11 -8,-91 -29,-92 -10,0 -11,-2 -2,-6 6,-2 12,-11 12,-19 0,-8 7,-14 15,-14 20,0 19,-26 0,-34 -18,-7 -55,27 -56,52 0,14 -2,14 -9,-3 -7,-16 -2,-26 21,-47 16,-16 36,-28 44,-28 13,0 13,-3 3,-20 -7,-11 -18,-18 -25,-16 -7,3 -15,1 -18,-4 -4,-6 -14,-10 -23,-10 -14,0 -14,2 -3,9 11,7 9,11 -8,21 -15,7 -20,17 -17,27 6,13 4,14 -9,3 -11,-9 -13,-16 -5,-24 5,-5 10,-18 10,-28 0,-13 8,-18 25,-18 30,0 34,-25 7,-39 -22,-12 -64,-3 -75,16 -4,7 -17,13 -27,13 -11,0 -25,9 -32,20 -7,11 -18,20 -25,20 -6,0 -18,6 -25,13 -11,11 -75,47 -84,47 -2,0 2,-14 8,-31 9,-26 12,-29 20,-15 8,14 11,15 33,0 13,-9 27,-24 30,-34 3,-11 11,-18 18,-16 7,1 9,1 5,-1 -22,-13 -4,-31 37,-37 24,-4 47,-11 49,-15 7,-10 -42,-37 -51,-28 -3,4 2,7 12,7 18,0 18,1 -1,15 -10,8 -27,15 -36,15 -15,0 -15,-3 -2,-27 7,-16 14,-36 14,-45 0,-23 0,-23 49,5 84,48 193,170 175,198 -4,7 -3,10 3,6 6,-4 17,10 26,31 11,28 27,43 60,60 46,23 77,28 77,13 0,-5 -8,-7 -17,-5 -15,4 -18,-2 -19,-33 0,-21 -12,-60 -26,-88 -14,-27 -36,-69 -48,-92 -12,-24 -28,-43 -35,-43 -8,0 -17,-9 -20,-20 -3,-11 -10,-20 -15,-20 -5,0 -15,-6 -22,-13 -7,-7 -26,-22 -42,-35 -25,-19 -26,-23 -11,-28 12,-5 23,0 35,16 11,15 22,20 30,15 10,-6 9,-11 -4,-21 -11,-8 -13,-14 -7,-19 6,-3 11,-3 11,1 0,4 8,0 18,-9 25,-23 77,-26 77,-5 0,9 4,20 8,24 4,4 7,20 7,35 0,15 5,31 10,34 20,13 9,25 -22,25 -31,-1 -32,-1 -14,-15 11,-8 16,-18 13,-22 -4,-3 -7,-4 -7,0 0,3 -13,2 -29,-3 -24,-7 -29,-5 -24,6 3,8 9,14 14,14 5,0 9,7 9,15 0,8 7,15 15,15 8,0 15,6 15,13 0,6 11,33 25,59 14,26 25,54 25,63 0,8 5,15 11,15 6,0 8,-7 5,-15 -3,-8 -8,-21 -11,-28 -4,-9 11,-17 47,-26 29,-8 65,-20 80,-27 35,-18 48,-18 48,1 0,17 16,20 25,5 10,-17 22,-11 29,12 4,18 8,20 18,10 6,-6 20,-12 29,-12 10,0 25,-10 33,-22 l 15,-21 10,24 c 17,37 40,148 32,153 -13,8 -41,-22 -35,-38 4,-9 1,-16 -6,-16 -9,0 -11,-10 -7,-32 3,-18 3,-27 0,-20 -4,10 -8,10 -17,-2 -18,-24 -39,-5 -27,25 9,21 10,22 11,4 1,-19 1,-19 11,-1 9,14 8,20 -1,26 -7,4 -10,15 -7,24 4,9 3,16 -2,16 -5,0 -14,-20 -20,-45 -7,-27 -17,-45 -25,-45 -12,0 -12,4 -1,28 18,35 30,112 18,112 -16,0 -63,-25 -63,-33 0,-5 5,-5 12,-1 8,5 9,-4 4,-35 -4,-28 -3,-40 4,-36 5,3 10,3 10,-2 0,-10 -20,-40 -20,-30 0,4 -9,-2 -20,-13 -11,-11 -24,-20 -30,-20 -15,0 -11,62 5,84 8,10 12,22 10,27 -10,14 18,59 37,59 10,0 18,5 18,10 0,5 -3,9 -7,9 -20,-3 -34,2 -28,11 3,6 2,10 -4,10 -5,0 -13,-4 -16,-10 -3,-5 -11,-10 -16,-10 -6,0 -8,4 -5,9 3,4 -7,6 -22,4 -22,-4 -24,-2 -12,7 12,8 9,9 -13,4 -18,-4 -36,0 -52,10 -14,9 -30,14 -34,11 -5,-3 -11,-1 -13,4 -1,4 -14,12 -27,16 -14,4 -21,3 -18,-2 4,-6 -5,-8 -21,-5 -23,4 -24,6 -8,12 15,5 8,10 -27,20 -50,13 -58,25 -30,46 20,14 18,18 -16,29 -22,7 -23,5 -16,-24 z m -45,-31 c 4,0 6,-9 3,-20 -5,-20 -53,-30 -53,-11 0,23 14,42 27,37 8,-3 18,-6 23,-6 z m 104,-44 c -4,-9 10,-17 43,-26 36,-10 42,-15 25,-18 -49,-8 -109,27 -85,51 11,12 23,8 17,-7 z m 12,-46 c 8,0 14,-7 14,-15 0,-18 -12,-19 -28,-3 -9,9 -15,9 -24,-1 -11,-10 -9,-12 7,-9 14,2 20,-3 21,-19 1,-19 -4,-23 -28,-23 -24,0 -29,4 -24,16 3,9 9,27 12,41 4,16 11,22 21,19 8,-3 21,-6 29,-6 z m 254,-41 c 9,-5 -8,-6 -42,-3 -69,8 -76,-1 -13,-17 38,-10 45,-15 45,-36 0,-13 -7,-31 -15,-39 -8,-9 -15,-24 -15,-35 0,-16 -5,-18 -31,-14 -53,10 -67,24 -67,72 0,36 3,43 16,39 43,-13 72,-18 72,-12 0,3 -20,11 -44,17 -30,7 -43,15 -39,24 9,24 95,26 133,4 z m -240,-314 c -19,-7 -30,-14 -23,-14 7,-1 17,-10 23,-21 9,-17 8,-19 -7,-13 -22,9 -43,28 -43,42 0,11 23,18 60,19 21,0 20,-1 -10,-13 z"
       id="path19" />
    <path
       d="m 1360,2091 c 0,-23 36,-35 44,-14 10,24 -5,36 -20,16 -13,-16 -14,-16 -8,0 3,9 1,17 -5,17 -6,0 -11,-8 -11,-19 z"
       id="path20" />
    <path
       d="m 1077,2043 c -4,-3 -7,-23 -7,-44 0,-29 -5,-39 -20,-44 -24,-8 -25,-15 -6,-60 14,-32 36,-48 36,-25 0,10 50,8 69,-4 6,-4 8,-18 5,-32 -5,-20 -2,-24 14,-24 28,0 37,18 19,38 -8,9 -12,23 -9,31 3,10 0,12 -12,8 -9,-4 -16,-2 -16,3 0,6 -3,9 -7,9 -21,-3 -40,3 -63,21 -21,17 -23,21 -10,29 9,7 15,27 15,56 0,25 0,45 -1,45 0,0 -4,-3 -7,-7 z"
       id="path21" />
    <path
       d="m 314,1968 c -4,-6 -2,-14 5,-16 9,-3 8,-7 -2,-16 -8,-6 -18,-27 -21,-47 -5,-30 -3,-37 16,-46 40,-20 81,-25 75,-11 -3,7 -16,43 -28,81 -23,67 -31,77 -45,55 z"
       id="path22" />
    <path
       d="m 847,1863 c -14,-32 -51,-136 -82,-231 -31,-95 -63,-179 -71,-187 -9,-9 -11,-16 -4,-20 7,-4 7,-11 2,-18 -14,-18 -21,-56 -11,-59 10,-4 -37,-158 -53,-173 -8,-7 -9,-5 -4,8 3,11 8,31 11,45 3,15 -6,-4 -20,-43 -14,-38 -31,-74 -38,-80 -7,-5 -19,-25 -26,-42 -7,-18 -16,-33 -20,-33 -4,0 -8,-11 -9,-25 -2,-23 0,-24 18,-15 11,6 18,15 15,20 -9,14 6,39 20,34 8,-3 12,-16 10,-32 -2,-15 -4,-39 -4,-54 -1,-23 -5,-27 -23,-24 -13,3 -26,5 -30,5 -4,1 -5,9 -2,19 5,14 3,14 -11,-3 -16,-19 -16,-15 -13,73 2,53 -1,92 -6,92 -6,0 0,9 12,20 12,12 22,25 22,29 0,12 -104,21 -108,10 -2,-5 -19,-7 -38,-3 -27,5 -34,3 -34,-9 0,-10 -11,-17 -32,-19 -18,-2 -32,-8 -31,-14 1,-7 -7,-20 -17,-29 -24,-22 -25,-43 -5,-72 12,-16 12,-22 2,-26 -6,-3 -2,-6 11,-6 15,-1 22,-7 22,-21 0,-16 -7,-20 -31,-20 -25,0 -30,-3 -27,-21 2,-12 14,-26 27,-31 22,-8 23,-7 10,9 -8,10 -18,21 -24,25 -14,10 -8,10 98,-7 137,-21 431,-37 596,-31 80,3 221,8 312,12 91,3 172,10 180,16 11,7 9,8 -5,4 -24,-8 -108,3 -101,13 2,4 20,8 40,9 20,1 52,6 73,11 20,6 60,10 88,10 28,-1 61,5 73,13 18,11 23,11 31,-2 12,-19 3,-71 -16,-90 -8,-8 -14,-10 -14,-3 0,8 -10,8 -32,3 -88,-24 -170,-40 -198,-40 -20,0 -29,-4 -24,-11 3,-6 0,-15 -7,-20 -7,-4 -10,-11 -6,-16 5,-4 12,-2 16,6 5,7 17,12 27,11 35,-4 49,2 24,10 -18,6 -7,8 43,9 44,1 67,5 67,13 0,6 3,9 6,5 3,-3 17,-1 31,4 30,11 49,3 34,-15 -12,-14 -5,-26 15,-26 8,0 11,6 8,15 -9,22 25,31 44,11 13,-13 13,-16 2,-16 -10,0 -9,-4 4,-13 15,-11 16,-18 8,-33 -5,-10 -10,-23 -10,-29 0,-5 -6,-11 -13,-14 -6,-2 -9,1 -6,7 7,10 -18,36 -37,38 -6,0 -17,2 -23,2 -7,1 -13,11 -13,22 0,11 -7,20 -15,20 -8,0 -14,-3 -14,-7 3,-21 -2,-33 -16,-33 -8,0 -15,5 -15,10 0,6 5,10 10,10 6,0 10,4 10,10 0,5 -19,2 -42,-6 -24,-8 -92,-22 -152,-30 -60,-8 -112,-17 -115,-19 -2,-3 1,-5 7,-5 7,0 12,-4 12,-10 0,-5 -9,-10 -21,-10 -14,0 -19,5 -16,14 4,11 -2,12 -28,6 -19,-4 -36,-5 -39,-3 -3,3 -18,1 -35,-5 -22,-8 -31,-7 -35,1 -2,7 -5,4 -5,-6 -1,-14 4,-16 27,-11 18,5 24,3 17,-4 -5,-5 -32,-12 -59,-16 -51,-6 -75,-16 -38,-16 19,0 22,-6 22,-40 0,-22 4,-40 10,-40 6,0 6,-9 -1,-26 -5,-15 -7,-35 -4,-45 3,-11 8,-29 11,-40 4,-14 2,-19 -5,-15 -6,4 -11,16 -11,27 0,10 -4,19 -9,19 -4,0 -6,-11 -3,-25 2,-14 1,-45 -2,-70 -6,-36 -12,-46 -31,-51 -14,-3 -38,-1 -55,4 -24,9 -30,8 -30,-4 0,-7 6,-14 13,-14 8,0 13,-12 12,-29 0,-26 -2,-27 -23,-18 -12,6 -21,16 -18,23 7,19 -16,87 -25,72 -6,-9 -11,-9 -23,1 -13,11 -17,11 -22,-2 -8,-21 3,-37 24,-37 15,0 15,2 2,10 -13,8 -12,10 3,10 23,0 22,-31 -2,-37 -22,-6 -46,-46 -37,-62 16,-26 40,-7 50,41 4,23 17,17 14,-7 -3,-27 0,-30 42,-38 51,-9 148,-3 162,11 13,13 -7,49 -32,57 -14,4 -20,15 -20,35 0,24 8,31 53,53 76,36 95,39 118,16 17,-17 27,-78 14,-91 -3,-3 -17,-3 -32,0 l -26,5 29,13 29,12 -31,1 c -37,1 -54,-15 -54,-50 0,-28 19,-39 68,-39 20,0 22,-4 17,-22 -4,-13 -11,-27 -15,-31 -4,-5 -2,-28 6,-52 l 13,-44 -35,-7 c -40,-7 -56,-24 -22,-24 25,1 130,28 111,29 -9,1 -8,8 3,29 7,15 14,35 14,45 0,9 5,17 11,17 6,0 9,-7 6,-15 -4,-8 -1,-17 5,-21 7,-5 8,-2 3,6 -5,9 -4,11 3,6 7,-4 12,-14 12,-22 0,-8 4,-13 9,-9 16,9 22,-12 6,-25 -7,-6 -35,-20 -62,-30 -57,-23 -45,-26 20,-6 59,18 60,11 4,-14 -105,-47 -405,-65 -563,-35 -94,18 -174,43 -174,55 0,5 15,3 34,-5 52,-22 171,-44 272,-50 103,-6 296,9 322,25 14,9 13,10 -8,5 -57,-14 -332,-18 -422,-5 -94,13 -198,44 -198,60 0,16 23,60 32,60 4,0 8,-10 8,-23 0,-43 38,-66 135,-81 50,-8 26,9 -26,18 -37,7 -37,7 -26,41 7,25 7,42 -1,60 -18,38 -15,45 16,45 57,0 84,67 37,88 -32,15 -55,15 -55,2 0,-5 3,-9 8,-9 4,1 18,1 32,0 23,-2 24,-3 7,-15 -29,-23 -57,-9 -57,28 0,82 40,104 115,66 22,-11 46,-20 55,-19 9,0 6,4 -7,9 -33,13 -28,24 7,16 27,-5 30,-3 30,20 0,22 -2,25 -15,14 -10,-9 -15,-9 -15,-1 0,6 -12,10 -27,10 -24,-2 -25,-2 -5,-6 12,-2 22,-8 22,-13 0,-11 -26,-20 -34,-12 -4,3 -12,7 -19,8 -16,3 -74,34 -63,34 5,0 3,7 -4,15 -10,12 -10,19 -2,27 15,15 16,32 2,23 -14,-8 -13,-2 5,31 10,20 15,24 15,11 0,-14 4,-16 18,-9 9,5 23,7 29,5 7,-3 16,4 20,14 3,10 12,22 20,26 7,4 13,14 13,22 0,7 7,21 16,29 13,14 13,16 1,16 -9,0 -18,-6 -20,-12 -4,-10 -8,-10 -15,0 -8,11 -10,11 -15,-1 -3,-9 1,-18 11,-22 15,-5 15,-7 2,-15 -8,-4 -34,-11 -57,-15 -24,-4 -45,-11 -49,-16 -10,-18 -24,2 -24,35 0,25 -5,35 -20,39 -27,7 -60,-3 -60,-18 0,-22 -25,-24 -97,-9 -62,13 -69,13 -80,-3 -26,-35 -10,-90 24,-79 10,3 42,0 71,-8 31,-8 55,-9 58,-4 3,5 4,11 2,14 -9,8 -120,25 -133,20 -7,-2 -16,2 -19,10 -3,8 -1,14 5,14 6,0 7,5 3,11 -5,9 4,10 32,5 83,-14 94,-18 94,-32 0,-18 15,-18 44,1 21,14 25,14 48,-5 14,-11 29,-31 32,-45 8,-30 -18,-85 -39,-85 -8,0 -15,-4 -15,-8 0,-5 7,-9 15,-9 8,0 15,4 15,8 0,3 9,9 20,12 11,3 20,1 20,-4 0,-5 -6,-9 -14,-9 -8,0 -16,-10 -18,-22 -2,-15 -11,-24 -25,-26 -18,-3 -24,4 -32,30 -9,31 -9,32 -10,6 -1,-15 4,-30 9,-33 6,-3 10,-19 10,-36 0,-19 5,-29 15,-29 23,0 18,-17 -7,-25 -19,-7 -15,-9 22,-14 l 45,-7 -32,-8 c -30,-7 -85,-1 -107,12 -5,2 7,12 25,20 31,14 32,16 11,20 -30,5 -52,-14 -52,-44 0,-18 6,-24 23,-24 18,0 19,-2 7,-10 -12,-8 -11,-10 7,-10 12,0 25,5 28,10 3,5 25,10 48,10 35,-1 39,-2 24,-11 -10,-6 -27,-9 -38,-6 -10,3 -19,1 -19,-3 0,-5 8,-11 18,-13 16,-4 16,-5 0,-6 -10,0 -18,-9 -18,-18 0,-9 -3,-14 -6,-10 -4,3 -20,-1 -36,-9 -28,-15 -29,-16 -26,-87 l 3,-72 45,-23 c 129,-68 508,-69 682,-3 81,31 93,55 70,151 -6,27 -19,41 -53,54 -21,9 -39,20 -39,26 0,5 -8,10 -17,11 -11,0 -13,3 -5,6 19,8 14,22 -7,16 -10,-3 -22,0 -25,6 -5,7 2,11 18,11 14,0 28,-4 31,-10 3,-5 13,-10 21,-10 8,0 13,4 10,9 -3,4 5,6 18,4 25,-5 40,16 29,43 -7,19 -47,36 -68,28 -19,-7 -19,1 -1,59 7,25 12,47 10,49 -1,2 -4,51 -5,108 0,58 -6,111 -11,118 -11,12 29,15 264,16 98,1 98,1 107,-26 8,-24 13,-27 33,-19 22,8 23,12 20,120 -4,155 -7,161 -79,161 -41,0 -54,3 -43,10 8,5 24,7 35,4 15,-4 16,-3 6,4 -7,5 -31,7 -52,5 l -39,-6 v 46 c 0,40 -10,57 -34,57 -1,0 -2,-30 -2,-67 l 1,-68 -77,-15 c -49,-9 -78,-19 -78,-27 0,-7 -4,-13 -10,-13 -5,0 -10,9 -10,20 0,11 5,20 10,20 6,0 10,20 10,45 0,34 -5,47 -20,55 -14,7 -20,7 -20,0 0,-5 5,-10 11,-10 5,0 8,-4 4,-9 -3,-5 -1,-12 5,-16 5,-3 10,-14 10,-23 0,-10 -11,-1 -26,23 -15,22 -23,31 -20,20 6,-18 5,-18 -7,-5 -8,8 -18,26 -22,38 -6,22 -5,23 14,13 14,-8 21,-8 21,-1 0,5 -5,10 -11,10 -26,0 -36,21 -75,150 -9,30 -22,64 -28,75 -21,34 -36,87 -28,99 4,6 7,20 8,31 0,11 4,31 8,45 l 7,25 -15,-25 c -9,-14 -16,-36 -16,-50 0,-14 -4,-20 -8,-14 -9,13 -45,27 -37,15 3,-5 -1,-12 -7,-15 -7,-3 -2,-4 12,-3 16,1 26,-4 28,-14 2,-14 -7,-16 -62,-15 -36,0 -66,5 -66,9 0,5 -28,7 -62,5 -55,-3 -65,-6 -76,-27 -7,-14 -10,-31 -8,-38 8,-20 -61,-17 -72,4 -9,14 -10,14 -16,-5 -5,-15 -16,-22 -32,-22 -27,0 -27,0 -14,34 9,24 14,26 75,26 37,0 65,4 65,10 0,6 -14,10 -31,10 -17,0 -28,4 -24,10 4,6 -5,10 -19,10 -19,0 -26,5 -26,19 0,11 5,21 10,23 6,2 11,14 12,28 0,14 5,39 9,56 l 9,31 108,-1 c 59,-1 119,2 134,6 23,7 27,4 37,-24 16,-46 14,-56 -16,-61 -25,-4 -25,-4 6,-6 30,-1 32,-3 20,-18 -12,-15 -12,-16 2,-11 9,4 20,3 25,-2 5,-5 10,5 11,23 1,26 0,28 -7,12 -8,-19 -9,-19 -9,3 -1,12 4,22 10,22 6,0 9,7 6,15 -4,8 -1,17 5,21 7,5 8,2 3,-6 -5,-9 -4,-11 3,-6 17,10 15,46 -2,46 -7,0 -18,-15 -24,-32 -10,-30 -11,-30 -8,-5 2,17 -1,27 -9,27 -13,0 -25,22 -25,46 0,8 -8,22 -19,33 -10,10 -21,25 -23,32 -4,11 -9,12 -26,2 -17,-10 -26,-10 -46,1 -14,7 -22,17 -18,21 4,5 -1,5 -10,2 -15,-5 -16,-3 -6,19 11,23 16,25 53,20 28,-5 36,-3 25,4 -8,5 -27,10 -42,10 -16,0 -28,5 -28,10 0,6 5,10 11,10 6,0 8,8 5,18 -8,23 9,50 17,28 4,-9 4,-24 1,-33 -5,-14 -4,-15 4,-4 8,11 12,9 22,-9 6,-12 14,-19 17,-16 3,3 1,11 -4,18 -5,7 -15,32 -22,56 -11,40 -14,42 -50,42 -37,0 -39,-2 -64,-57 z m 57,-10 c -22,-95 -40,-148 -50,-146 -5,1 -9,-14 -10,-33 -1,-44 -16,-60 -41,-44 -16,10 -16,11 0,6 18,-6 25,10 6,16 -7,2 -3,27 11,73 42,134 64,185 81,185 15,0 15,-6 3,-57 z m 20,-149 c 11,-4 16,-19 16,-50 0,-43 -1,-44 -32,-44 -54,0 -61,10 -46,58 13,42 27,50 62,36 z m 110,-47 c 13,-20 8,-25 -32,-33 -30,-6 -32,-5 -32,23 0,16 -6,35 -12,41 -9,9 -2,9 27,-1 21,-8 43,-21 49,-30 z m -66,-274 c 2,-25 -1,-33 -12,-33 -18,0 -20,8 -6,30 6,9 5,17 -3,22 -18,12 -32,9 -20,-3 6,-6 9,-19 6,-29 -7,-26 -76,-23 -81,4 -7,36 5,45 60,43 52,-2 53,-3 56,-34 z m 136,12 c -4,-10 0,-15 12,-15 14,0 15,-3 6,-12 -8,-8 -15,-9 -20,-3 -4,6 -16,17 -26,25 -18,14 -19,14 -7,-7 10,-19 9,-23 -4,-23 -8,0 -15,6 -15,13 0,8 -4,7 -10,-3 -8,-12 -12,-13 -19,-2 -7,11 -9,11 -14,-2 -10,-27 -27,-18 -27,14 v 30 h 65 c 53,0 63,-3 59,-15 z m 78,-171 15,-42 -89,2 c -63,1 -88,5 -88,14 0,6 8,12 18,12 25,0 31,7 25,31 -4,16 -14,19 -57,19 -58,0 -82,-11 -73,-34 4,-10 19,-16 42,-16 19,0 35,-5 35,-11 0,-5 -4,-7 -10,-4 -5,3 -14,4 -19,1 -7,-5 -281,-17 -281,-12 0,0 11,35 24,76 l 24,75 45,3 c 36,2 46,0 49,-14 2,-13 18,-17 71,-21 62,-4 67,-3 67,16 0,18 7,20 83,23 l 82,3 11,-40 c 6,-22 18,-59 26,-81 z m -482,42 c 0,-16 -24,-66 -32,-66 -6,0 -7,8 -3,18 4,9 10,25 12,35 4,14 23,25 23,13 z M 493,1153 c -20,-4 -22,-10 -22,-76 0,-40 0,-77 0,-83 -1,-7 -12,-9 -27,-6 -18,3 -22,8 -15,15 12,12 15,95 5,121 -3,9 -13,16 -21,16 -8,0 -12,-4 -8,-9 10,-17 -34,-34 -51,-20 -12,10 -13,9 -8,-6 6,-15 5,-16 -15,-4 -29,19 -26,26 8,24 23,-1 28,2 23,14 -5,14 -3,14 11,2 15,-11 17,-11 17,2 0,12 13,15 63,14 34,0 52,-2 40,-4 z m 219,2 c 8,-9 287,-11 281,-2 -2,4 1,7 6,7 6,0 11,-8 11,-17 0,-14 2,-15 9,-4 6,9 22,12 49,8 22,-2 46,1 51,6 8,8 11,8 11,0 0,-6 16,-10 39,-9 42,2 51,-8 51,-63 0,-13 3,-22 6,-18 8,8 49,-52 57,-85 5,-20 2,-27 -19,-37 -14,-6 -29,-9 -33,-7 -4,3 -5,30 -3,60 3,49 1,55 -14,49 -15,-5 -16,-1 -10,30 6,31 4,36 -9,31 -8,-4 -21,-2 -28,3 -16,13 -87,15 -87,3 0,-6 -16,-10 -35,-10 -19,0 -35,-4 -35,-10 0,-5 -22,-10 -50,-10 -27,0 -50,-4 -50,-9 0,-8 120,-6 213,3 23,3 37,0 38,-7 0,-8 2,-8 6,1 2,6 9,12 15,12 7,0 9,-21 6,-55 -3,-30 -1,-52 4,-49 4,3 8,14 8,25 0,10 4,19 9,19 12,0 1,-73 -13,-82 -13,-9 -24,16 -25,55 -1,15 -5,27 -10,27 -5,0 -7,-10 -3,-22 5,-20 3,-21 -10,-10 -18,14 -64,13 -66,-3 -6,-60 9,-55 -162,-54 -86,1 -168,-2 -181,-6 -20,-7 -22,-6 -11,7 10,13 8,15 -14,10 -19,-3 -25,-1 -20,7 4,6 2,11 -3,11 -6,0 -11,4 -11,10 0,6 9,6 25,0 23,-9 24,-8 12,11 -8,13 -21,19 -37,17 -23,-3 -25,1 -28,37 l -3,40 78,-3 c 43,-1 116,4 163,12 l 85,14 -117,1 c -95,1 -122,4 -137,18 -11,9 -18,20 -15,25 3,4 0,8 -5,8 -15,0 -14,-6 5,-35 16,-25 16,-25 -17,-25 -31,0 -32,1 -13,14 18,14 18,15 -3,13 -13,-1 -23,-5 -23,-9 0,-4 -9,-8 -19,-8 -14,0 -18,-5 -14,-21 4,-16 8,-17 14,-7 5,8 8,-6 8,-37 0,-37 -3,-45 -9,-30 -8,19 -9,19 -9,-2 -1,-27 -11,-53 -20,-53 -13,0 2,75 18,87 15,12 15,13 0,7 -23,-7 -30,17 -18,60 8,29 15,36 34,36 14,0 25,5 25,10 0,10 43,14 52,5 z m -387,-66 c 4,-6 13,-8 21,-5 10,4 14,-2 14,-20 0,-14 4,-23 10,-19 6,3 17,0 25,-9 19,-19 19,-26 0,-26 -8,0 -15,5 -15,11 0,5 -4,8 -9,5 -4,-3 -6,-17 -3,-31 3,-19 0,-25 -14,-25 -26,0 -50,17 -40,27 5,4 11,3 13,-4 2,-7 10,-10 18,-7 27,11 4,33 -28,28 -18,-2 -26,-1 -19,2 10,5 8,10 -7,21 -24,16 -27,33 -9,51 15,15 35,15 43,1 z m 1235,-90 c 19,-1 27,-3 17,-6 -29,-7 -89,6 -81,18 4,7 10,7 17,0 6,-6 27,-12 47,-12 z M 427,980 c 14,0 23,-6 23,-15 0,-18 -9,-19 -44,-5 -14,5 -26,17 -26,27 0,13 3,14 12,5 7,-7 22,-12 35,-12 z m 731,-27 c 2,-8 -6,-13 -22,-13 -14,0 -26,6 -26,13 0,8 -4,7 -10,-3 -8,-13 -10,-12 -10,3 0,15 7,18 32,15 17,-2 33,-9 36,-15 z m 28,-263 c 1,-49 -2,-60 -15,-60 -9,0 -22,9 -29,20 -14,22 -52,26 -84,9 -18,-10 -20,-9 -15,6 4,9 7,23 7,30 0,9 17,16 46,21 25,3 51,13 57,20 23,26 32,13 33,-46 z m 50,-10 c 0,-27 -3,-50 -8,-50 -4,0 -8,23 -8,50 0,28 4,50 8,50 5,0 8,-22 8,-50 z m -126,-35 c -10,-12 -9,-15 5,-15 9,0 19,-9 22,-20 3,-11 9,-20 14,-20 5,0 6,7 3,15 -4,8 -1,15 6,15 9,0 11,-13 6,-46 -3,-28 -2,-43 4,-39 6,3 10,24 10,46 0,39 0,39 39,39 38,0 38,0 36,-37 -2,-21 -4,-40 -5,-43 -1,-3 -3,-16 -3,-29 -1,-13 -7,-26 -13,-28 -12,-4 -23,25 -25,67 l -1,25 -7,-25 c -5,-18 -15,-26 -34,-28 -24,-3 -27,0 -24,20 2,13 2,17 0,11 -4,-11 -31,-18 -55,-14 -12,2 -9,-14 4,-27 9,-9 9,-12 -3,-12 -25,0 -39,22 -39,63 0,29 7,46 29,68 31,30 53,40 31,14 z m 175,-245 c -17,-7 -16,-9 10,-10 26,-1 27,-3 10,-10 -29,-12 -108,-12 -100,0 3,6 17,10 31,10 13,0 24,5 24,10 0,6 10,10 23,9 21,0 21,-1 2,-9 z m -282,-54 c 38,-5 28,-17 -12,-14 -25,2 -46,9 -49,16 -3,9 3,11 20,7 13,-3 32,-7 41,-9 z m 238,-48 c 0,-2 2,-22 5,-44 4,-31 1,-43 -11,-47 -8,-4 -15,-5 -15,-4 0,1 -4,17 -10,36 -8,30 -7,33 10,28 11,-3 20,-1 20,4 0,5 -4,9 -10,9 -5,0 -10,5 -10,10 0,8 19,15 21,8 z m 99,-152 C 1292,99 1054,63 864,74 c -138,7 -321,52 -300,73 3,3 11,1 18,-4 12,-9 45,-19 150,-42 26,-6 116,-11 200,-11 165,0 305,19 373,50 50,23 53,23 35,6 z M 685,82 C 718,74 826,65 925,61 L 1105,54 948,52 C 783,50 665,65 613,95 c -15,9 -19,13 -8,9 11,-4 47,-14 80,-22 z m 548,-2 c -13,-5 -46,-11 -75,-14 l -53,-5 60,13 c 70,16 99,18 68,6 z"
       id="path23" />
    <path
       d="m 873,1393 c -3,-10 -8,-21 -10,-25 -2,-5 1,-8 6,-8 6,0 11,7 11,16 0,13 3,14 14,5 11,-9 16,-9 21,0 4,6 1,15 -6,20 -21,13 -29,11 -36,-8 z"
       id="path24" />
    <path
       d="m 1061,1046 c 8,-9 100,-12 105,-4 3,4 -21,8 -52,8 -32,0 -55,-2 -53,-4 z"
       id="path25" />
    <path
       d="m 860,990 c 34,-11 90,-12 90,-2 0,5 -26,9 -57,9 -42,1 -51,-1 -33,-7 z"
       id="path26" />
    <path
       d="m 286,1073 c -10,-26 11,-40 31,-20 9,9 13,20 9,24 -5,5 -11,2 -13,-4 -3,-7 -9,-13 -14,-13 -4,0 -6,7 -3,15 4,8 4,15 1,15 -3,0 -8,-8 -11,-17 z"
       id="path27" />
    <path
       d="m 1097,606 c -4,-9 -2,-16 3,-16 6,0 10,-4 10,-9 0,-5 -9,-7 -20,-4 -11,3 -20,0 -20,-6 0,-16 40,-13 46,3 3,8 1,22 -4,31 -8,16 -10,16 -15,1 z"
       id="path28" />
    <path
       d="m 416,1822 c -4,-7 2,-22 13,-34 12,-12 21,-27 21,-32 1,-15 50,-50 58,-41 3,3 -8,17 -26,31 -29,23 -47,54 -22,39 6,-3 10,-1 10,5 0,7 -7,9 -15,6 -10,-4 -19,2 -24,16 -5,14 -10,17 -15,10 z"
       id="path29" />
    <path
       d="m 1060,1654 c 0,-8 5,-12 10,-9 6,3 10,-2 10,-11 0,-14 3,-15 11,-7 7,7 9,19 6,27 -8,21 -37,21 -37,0 z"
       id="path30" />
    <path
       d="m 1277,1573 c -4,-3 -32,-6 -62,-6 -30,0 -55,-4 -55,-8 0,-5 12,-9 26,-9 15,0 23,-4 19,-11 -4,-6 -13,-8 -21,-5 -22,9 -21,-52 2,-112 l 14,-37 -5,35 c -2,19 -7,49 -10,66 -6,27 -4,32 17,37 12,4 38,7 56,7 28,0 32,-3 32,-25 0,-18 5,-25 20,-25 17,0 20,7 20,50 0,46 -2,50 -23,50 -13,0 -27,-3 -30,-7 z"
       id="path31" />
    <path
       d="m 636,1476 c -9,-21 -16,-41 -16,-45 0,-4 -16,-5 -35,-3 l -35,4 v -46 c 0,-39 3,-46 20,-46 17,0 19,-5 14,-32 -3,-18 -14,-57 -24,-85 -10,-30 -14,-53 -8,-53 5,0 12,9 15,20 3,11 9,20 14,20 4,0 8,8 8,18 0,9 4,38 9,65 5,29 5,47 -1,47 -5,0 -6,7 -3,16 4,12 2,15 -9,10 -9,-3 -15,0 -15,9 0,8 6,15 13,15 8,0 7,4 -3,11 -12,8 -8,10 17,7 17,-3 31,-2 31,1 -1,3 7,23 16,44 9,22 15,44 13,50 -2,7 -12,-5 -21,-27 z"
       id="path32" />
    <path
       d="m 1338,1433 c -3,-27 -5,-28 -64,-31 -55,-3 -61,-5 -57,-22 4,-15 16,-19 64,-22 57,-3 60,-2 65,22 10,43 12,46 13,13 1,-17 -3,-35 -9,-38 -5,-3 -10,-17 -10,-31 0,-21 4,-25 23,-22 21,3 22,8 22,78 0,69 -2,75 -22,78 -17,3 -22,-2 -25,-25 z"
       id="path33" />
    <path
       d="m 1216,1333 c 7,-16 14,-40 14,-55 0,-15 5,-30 10,-33 6,-3 10,-14 10,-24 0,-10 7,-32 15,-47 l 15,-29 v 25 c 0,26 -39,155 -53,178 -16,24 -26,11 -11,-15 z"
       id="path34" />
    <path
       d="m 1365,1260 c 3,-6 -1,-7 -9,-4 -11,4 -16,0 -16,-15 0,-14 6,-21 18,-21 25,0 30,-6 25,-33 -4,-20 -9,-22 -50,-18 -35,2 -44,0 -41,-10 3,-10 25,-14 74,-14 h 70 l -5,30 c -5,30 -5,30 -12,5 l -7,-25 -1,28 c -1,23 4,28 29,34 33,6 42,36 14,47 -26,10 -96,7 -89,-4 z"
       id="path35" />
    <path
       d="m 1367,1119 c -56,-9 -59,-10 -49,-26 9,-15 124,6 129,24 5,13 -4,13 -80,2 z"
       id="path36" />
    <path
       d="m 1560,959 c -19,-5 -45,-6 -57,-4 -13,3 -23,1 -23,-5 0,-15 80,-11 115,5 34,15 17,17 -35,4 z"
       id="path37" />
    <path
       d="m 335,910 c 3,-6 -1,-7 -9,-4 -24,9 -19,-3 13,-39 45,-49 138,-70 397,-93 56,-5 71,-3 71,8 0,9 -12,13 -40,11 -31,-2 -38,1 -33,14 5,12 1,14 -18,9 -19,-5 -26,-1 -31,14 -5,17 -15,20 -60,20 -29,0 -61,3 -71,7 -11,4 -15,3 -11,-4 5,-7 -9,-12 -38,-15 -50,-4 -55,-1 -22,11 18,7 10,10 -38,15 -33,4 -67,8 -75,9 -17,3 -21,28 -5,39 5,4 0,8 -13,8 -13,0 -20,-4 -17,-10 z"
       id="path38" />
    <path
       d="m 1180,848 c -58,-4 -184,-7 -280,-7 -96,0 -179,-1 -185,-2 -22,-6 274,-14 338,-9 37,3 67,2 67,-2 0,-5 -7,-8 -15,-8 -11,0 -10,-5 6,-21 11,-11 24,-17 27,-13 4,3 1,9 -5,11 -23,8 -14,25 10,19 12,-3 35,1 50,9 15,8 27,9 27,4 0,-6 15,-8 36,-4 59,9 85,17 79,24 -8,8 -26,8 -155,-1 z"
       id="path39" />
    <path
       d="m 870,798 c 0,-6 -8,-7 -17,-3 -13,4 -15,3 -7,-5 6,-6 25,-10 43,-8 l 31,3 -25,12 c -16,7 -25,7 -25,1 z"
       id="path40" />
    <path
       d="m 933,793 c 0,-9 9,-11 26,-7 14,3 32,6 39,6 30,3 8,13 -26,13 -25,0 -39,-4 -39,-12 z"
       id="path41" />
    <path
       d="m 887,744 c -5,-28 9,-39 40,-31 14,4 12,5 -6,6 -19,1 -23,5 -19,26 3,14 2,25 -2,25 -4,0 -10,-12 -13,-26 z"
       id="path42" />
    <path
       d="m 720,745 c 0,-15 46,-32 57,-22 3,4 3,13 0,22 -8,20 -57,20 -57,0 z"
       id="path43" />
    <path
       d="m 602,648 c -16,-16 -15,-70 2,-93 11,-16 18,-17 37,-8 20,10 21,12 5,12 -23,1 -45,29 -46,57 0,23 24,39 42,27 7,-3 8,-1 4,5 -9,15 -29,15 -44,0 z"
       id="path44" />
    <path
       d="m 828,634 c -6,-13 -16,-24 -22,-24 -6,0 -3,-5 7,-11 22,-13 23,-30 1,-22 -12,4 -15,2 -12,-8 3,-8 13,-13 23,-11 10,2 22,-2 26,-10 7,-11 11,-10 19,2 7,11 10,11 10,2 0,-8 9,-12 23,-10 19,3 22,-1 19,-30 -1,-21 2,-31 8,-27 6,4 8,11 5,16 -4,5 -1,9 6,9 6,0 9,8 6,19 -3,14 0,17 14,14 11,-3 19,-3 19,0 0,9 -112,39 -126,33 -18,-7 -31,41 -15,57 6,6 11,7 11,1 0,-5 12,-11 27,-12 15,-1 30,-7 34,-14 4,-7 9,-4 12,8 3,13 5,9 6,-11 l 1,-30 13,25 c 8,14 13,26 11,28 -1,2 -28,9 -59,17 -56,13 -57,12 -67,-11 z"
       id="path45" />
    <path
       d="m 985,613 c 11,-11 26,-18 33,-15 17,6 15,22 -2,22 -8,0 -23,3 -33,7 -16,5 -16,4 2,-14 z"
       id="path46" />
    <path
       d="m 738,578 c -4,-21 -1,-24 24,-20 19,3 28,10 28,23 0,21 -15,25 -26,8 -5,-8 -9,-8 -14,1 -5,8 -9,3 -12,-12 z"
       id="path47" />
    <path
       d="m 890,496 c 0,-13 -6,-27 -12,-29 -10,-4 -10,-6 0,-6 6,-1 12,-8 12,-16 0,-8 4,-15 10,-15 5,0 9,20 8,45 -2,46 -18,65 -18,21 z"
       id="path48" />
    <path
       d="m 1060,303 c -30,-15 -121,-17 -170,-3 -23,7 -36,6 -40,-1 -5,-6 -15,-7 -33,0 -21,8 -27,7 -27,-3 0,-7 -12,-18 -26,-25 -29,-13 -28,-31 4,-46 15,-6 22,-19 22,-37 0,-36 21,-42 152,-40 117,1 149,11 145,44 -2,16 6,23 38,32 49,14 51,33 6,57 -19,10 -37,22 -40,27 -3,4 -17,2 -31,-5 z m 30,-9 c 0,-10 -33,-33 -48,-34 -8,0 -30,-8 -49,-17 -31,-14 -37,-15 -47,-2 -6,8 -22,16 -36,18 -14,1 -33,7 -42,12 -12,6 -18,6 -18,0 0,-6 11,-13 25,-17 15,-4 28,-16 31,-30 7,-27 36,-38 80,-31 22,3 19,4 -13,6 -29,0 -43,6 -43,14 0,15 56,17 77,4 8,-5 11,-3 8,5 -3,8 9,18 32,26 37,13 46,14 78,10 24,-2 -4,-28 -31,-28 -22,0 -30,-17 -25,-52 0,-4 -35,-6 -79,-3 -44,2 -80,0 -80,-3 0,-4 -16,-8 -36,-10 -39,-2 -66,12 -58,32 2,6 -4,21 -15,33 -17,18 -18,23 -6,33 11,9 15,9 15,1 0,-6 5,-11 10,-11 6,0 10,6 10,14 0,22 27,27 78,15 48,-11 127,-5 152,12 18,10 30,12 30,3 z"
       id="path49" />
  </g>
  <g
     transform="matrix(0.02670239,0,0,-0.02670239,12.733603,79.528605)"
     fill="#000000"
     stroke="none"
     id="g98">
    <path
       d="m 663,2943 c -7,-3 -13,-11 -13,-19 0,-8 -4,-14 -10,-14 -5,0 -13,-12 -16,-27 -4,-16 -18,-45 -31,-65 l -23,-37 26,-28 c 14,-15 34,-36 44,-47 19,-18 19,-20 -5,-65 -22,-44 -75,-211 -75,-237 0,-17 53,-25 62,-10 7,13 103,-7 278,-60 47,-14 101,-29 120,-34 19,-4 105,-25 190,-45 267,-62 310,-75 310,-94 0,-12 2,-13 8,-3 12,18 42,4 35,-16 -12,-31 44,21 77,71 45,69 54,104 29,117 -15,8 -23,7 -35,-5 -27,-27 -57,-16 -120,43 -34,31 -74,68 -90,81 -16,14 -68,59 -115,100 -207,184 -234,206 -244,205 -6,-1 -11,6 -10,15 2,25 32,64 43,57 16,-9 2,32 -15,46 -8,7 -25,13 -36,15 -21,3 -21,2 -3,-12 17,-13 17,-15 3,-21 -9,-3 -14,-10 -11,-15 3,-5 -9,-7 -25,-5 -20,2 -54,24 -95,60 l -65,57 -38,-42 c -21,-23 -39,-45 -41,-50 -9,-23 -61,17 -59,45 2,20 -31,46 -50,39 z m 37,-30 c 0,-2 -9,-7 -21,-11 -20,-8 -20,-9 -3,-23 11,-8 15,-9 10,-1 -4,6 -4,12 1,12 4,0 13,-11 20,-25 6,-14 8,-23 3,-20 -4,3 -10,-7 -13,-21 -5,-30 13,-27 29,5 10,19 13,20 24,6 15,-18 30,-20 30,-2 1,19 59,85 60,67 1,-12 3,-11 14,3 8,11 17,14 20,8 4,-5 -12,-20 -34,-34 -22,-13 -37,-27 -33,-30 3,-4 -2,-14 -13,-21 -10,-8 -16,-18 -11,-22 4,-4 23,11 43,34 19,23 41,42 48,42 6,0 35,-24 64,-53 l 52,-53 -25,-24 c -38,-36 -19,-76 48,-101 15,-6 27,-15 27,-21 0,-5 4,-6 10,-3 5,3 33,-12 61,-35 28,-22 44,-40 35,-40 -9,0 -16,-4 -16,-10 0,-13 13,-13 27,1 15,15 56,-10 42,-27 -12,-15 -1,-44 17,-44 8,0 14,-4 14,-10 0,-5 8,-10 18,-10 13,1 11,5 -10,23 -24,20 -38,47 -23,47 18,0 61,-38 58,-50 -4,-13 -3,-13 6,0 5,8 13,11 16,8 10,-10 -4,-28 -21,-28 -25,0 -5,-20 47,-44 31,-15 51,-20 55,-14 7,11 -16,29 -28,22 -11,-7 -48,19 -48,33 0,16 22,17 38,1 6,-6 14,-10 16,-7 5,4 -95,72 -207,140 -45,28 -48,32 -42,61 5,20 4,28 -3,24 -6,-4 -10,2 -9,14 1,22 21,27 33,8 4,-7 3,-8 -4,-4 -7,4 -12,3 -12,-1 0,-5 33,-36 73,-70 39,-34 83,-72 97,-85 23,-22 121,-97 184,-141 15,-10 23,-23 20,-29 -5,-7 -2,-8 5,-3 13,8 54,-28 44,-39 -3,-3 13,-8 36,-12 46,-7 49,-15 21,-51 -11,-15 -19,-28 -17,-30 7,-7 37,9 32,17 -3,4 8,23 25,41 16,19 28,27 26,19 -4,-26 -42,-92 -52,-91 -5,1 -9,-4 -9,-11 0,-6 -8,-12 -18,-14 -13,-2 -17,2 -13,12 3,8 1,14 -4,14 -6,0 -10,-5 -10,-10 0,-16 -31,-8 -57,14 -15,13 -20,24 -14,34 10,18 -9,62 -27,62 -7,0 -65,34 -128,75 -63,41 -118,75 -122,75 -4,0 -23,13 -43,29 -19,16 -52,33 -73,36 -20,4 -35,12 -33,19 11,34 -164,106 -184,75 -4,-7 -21,4 -44,29 -21,22 -44,38 -51,35 -6,-2 -15,0 -19,6 -3,6 -17,11 -30,11 -13,0 -27,5 -30,10 -3,6 -14,10 -25,10 -21,0 -31,20 -24,47 4,13 0,20 -9,20 -9,0 -13,-6 -10,-15 5,-12 3,-12 -15,-1 -18,11 -19,15 -7,22 8,4 15,17 15,27 0,10 5,22 10,25 6,4 8,11 5,16 -9,14 28,57 48,56 9,-1 17,-3 17,-4 z m 350,-183 c 11,-11 20,-33 20,-48 0,-15 5,-33 12,-40 9,-9 9,-12 0,-12 -7,0 -12,5 -12,11 0,5 -4,7 -10,4 -5,-3 -29,7 -52,22 -24,15 -45,28 -46,29 -2,2 4,14 15,28 22,31 46,33 73,6 z m -356,-36 c 8,-3 12,-12 10,-19 -3,-8 -13,-11 -22,-8 -11,5 -14,2 -9,-10 6,-16 -9,-65 -24,-77 -3,-3 -11,-14 -18,-25 -13,-20 -13,-20 -6,0 4,11 8,25 8,32 0,7 4,10 8,8 10,-7 25,43 24,78 -1,28 3,31 29,21 z m 86,-38 c 7,-9 18,-16 25,-16 7,0 18,-7 25,-15 13,-16 14,-14 -85,-131 -47,-56 -52,-59 -79,-49 -24,8 -27,14 -23,40 7,41 42,133 67,173 21,34 39,34 70,-2 z m 200,-73 c 51,-29 61,-50 35,-76 -8,-8 -19,-35 -24,-59 -13,-55 -13,-68 -1,-68 6,0 10,11 10,24 0,14 4,27 9,30 5,3 7,16 3,29 -5,20 -4,21 13,7 14,-11 17,-11 11,-1 -5,8 -3,17 5,22 11,7 11,9 1,9 -7,0 -10,5 -7,10 12,19 60,-2 200,-88 77,-47 145,-90 150,-95 6,-4 25,-17 43,-28 31,-18 50,-44 40,-54 -3,-3 -58,9 -124,26 -65,17 -156,40 -202,51 l -83,20 7,36 c 4,21 10,41 15,47 12,12 12,62 0,69 -10,7 -31,-59 -35,-109 -1,-24 -16,-36 -31,-27 -5,4 -21,7 -35,8 -41,2 -250,58 -247,66 1,4 34,45 72,92 81,98 95,103 175,59 z M 826,2385 c 88,-18 121,-30 107,-38 -6,-4 -28,0 -49,8 -22,8 -61,21 -89,29 -67,19 -56,19 31,1 z m 224,-44 c 0,-6 21,-16 48,-25 l 47,-14 h -40 c -66,1 -83,7 -78,29 5,19 23,27 23,10 z"
       id="path50" />
    <path
       d="m 809,2777 c 12,-15 11,-17 -4,-17 -10,0 -15,-6 -13,-17 2,-10 10,-18 18,-18 8,0 14,8 14,18 -2,21 -1,21 34,-1 25,-14 27,-19 16,-30 -8,-7 -14,-19 -14,-27 0,-15 26,-45 40,-45 15,0 40,31 40,51 0,18 -36,46 -110,84 -31,16 -33,16 -21,2 z m 117,-96 c -9,-14 -56,-14 -56,0 0,6 7,8 16,5 8,-3 12,-2 9,4 -12,19 6,33 22,17 9,-8 12,-20 9,-26 z"
       id="path51" />
    <path
       d="m 1040,2920 c 0,-5 4,-10 10,-10 18,0 79,-61 74,-75 -3,-7 -1,-16 5,-20 6,-3 14,1 18,11 4,12 -7,30 -40,60 -45,43 -67,54 -67,34 z"
       id="path52" />
    <path
       d="m 182,2343 c -25,-48 -52,-158 -52,-207 0,-34 2,-38 21,-33 11,3 42,-1 67,-9 59,-17 55,-18 49,6 -3,11 3,56 12,100 10,44 14,80 9,80 -4,0 -8,-12 -8,-26 0,-14 -4,-22 -10,-19 -6,4 -7,-5 -4,-24 5,-25 3,-29 -12,-27 -11,2 -13,1 -6,-1 9,-3 12,-13 8,-26 -3,-12 -6,-28 -6,-34 0,-7 -7,-13 -15,-13 -8,0 -15,4 -15,10 0,5 -7,7 -15,4 -8,-4 -15,-1 -15,6 0,7 -7,10 -14,7 -9,-4 -17,1 -20,11 -8,24 11,134 24,142 6,4 8,14 5,22 -4,9 -2,19 4,23 6,3 11,2 11,-3 0,-8 87,-27 110,-24 15,2 9,22 -7,22 -32,0 -94,21 -88,30 3,5 1,11 -4,15 -6,3 -19,-11 -29,-32 z"
       id="path53" />
    <path
       d="m 117,2358 c -7,-4 -3,-10 13,-16 28,-11 40,-7 40,11 0,14 -34,17 -53,5 z"
       id="path54" />
    <path
       d="m 86,2331 c -11,-17 -36,-166 -31,-182 4,-11 15,-19 28,-19 20,1 20,2 5,11 -19,11 -25,39 -8,39 6,0 10,5 10,11 0,5 -3,8 -8,5 -4,-2 -6,13 -4,35 2,21 8,39 14,39 5,0 6,10 3,21 -5,13 -3,19 3,15 5,-3 15,0 21,8 9,11 7,15 -9,19 -11,3 -22,2 -24,-2 z"
       id="path55" />
    <path
       d="m 339,2315 c -7,-16 -16,-32 -20,-35 -9,-7 -39,-147 -39,-181 0,-32 3,-34 28,-20 14,7 18,25 20,81 2,56 8,80 28,111 13,21 20,39 15,39 -5,0 -11,8 -14,18 -3,13 -7,10 -18,-13 z"
       id="path56" />
    <path
       d="m 370,2282 c 0,-6 17,-16 38,-21 37,-10 306,-76 350,-86 12,-3 22,-1 22,4 0,5 -10,11 -22,14 -13,3 -59,14 -103,25 -44,11 -116,30 -160,42 -112,32 -125,34 -125,22 z"
       id="path57" />
    <path
       d="m 830,2271 c 0,-6 4,-11 10,-11 5,0 7,-7 4,-15 -4,-8 -2,-15 4,-15 6,0 13,6 15,13 4,9 6,9 6,-1 1,-7 6,-10 11,-7 6,3 10,-1 10,-9 0,-9 -4,-16 -10,-16 -5,0 -10,-6 -10,-12 1,-7 13,2 29,20 28,32 46,42 39,20 -3,-7 11,-23 31,-36 29,-20 43,-23 85,-18 33,3 45,2 36,-4 -13,-8 -12,-10 3,-10 9,0 17,5 17,10 0,6 8,10 17,10 30,0 0,17 -69,39 -78,25 -79,25 -76,9 2,-6 -5,-14 -15,-16 -16,-3 -17,-1 -8,16 9,17 6,20 -27,26 -20,3 -52,9 -69,12 -21,4 -33,2 -33,-5 z"
       id="path58" />
    <path
       d="m 1087,2251 c 6,-25 31,-35 50,-19 16,13 9,19 -34,32 -18,6 -20,3 -16,-13 z"
       id="path59" />
    <path
       d="m 395,2230 c 3,-5 19,-10 35,-10 33,0 80,-19 80,-32 0,-5 -17,-6 -37,-3 -21,3 -7,-4 31,-15 38,-12 74,-19 80,-17 6,3 -6,8 -26,12 -22,4 -38,13 -38,21 0,11 8,10 43,-2 23,-9 51,-17 62,-19 59,-9 91,-17 100,-26 6,-6 -1,-8 -17,-7 -15,1 -25,5 -22,9 2,4 -6,5 -18,1 -20,-5 -19,-7 12,-18 51,-18 60,-17 60,11 0,19 -7,26 -27,31 -16,3 -53,12 -83,20 -30,7 -66,15 -80,18 -14,2 -52,11 -85,20 -69,19 -78,19 -70,6 z"
       id="path60" />
    <path
       d="m 344,2209 c -3,-5 2,-9 10,-9 8,0 26,-12 40,-27 14,-15 29,-24 32,-20 4,4 -1,14 -12,23 -15,12 -16,15 -2,10 9,-2 19,2 22,10 3,8 2,13 -2,10 -5,-3 -25,-1 -45,4 -21,4 -39,4 -43,-1 z"
       id="path61" />
    <path
       d="m 810,2199 c 0,-5 -4,-7 -10,-4 -11,7 -14,-8 -4,-18 8,-7 54,13 54,25 0,4 -9,8 -20,8 -11,0 -20,-5 -20,-11 z"
       id="path62" />
    <path
       d="m 855,2171 c 3,-2 -2,-16 -10,-31 -11,-22 -20,-27 -36,-23 -16,5 -20,3 -14,-6 4,-7 16,-11 26,-8 11,3 19,1 19,-4 0,-5 -5,-9 -11,-9 -6,0 3,-11 19,-25 69,-58 155,-4 121,77 -6,15 -21,30 -33,33 -23,6 -87,2 -81,-4 z m 83,-17 c 40,-28 18,-104 -30,-104 -23,0 -58,35 -58,58 0,21 35,62 53,62 7,0 23,-7 35,-16 z"
       id="path63" />
    <path
       d="m 1064,2155 c 5,-11 9,-25 9,-32 0,-7 17,-11 43,-11 36,0 41,2 37,18 -6,23 -32,34 -48,20 -9,-8 -18,-6 -31,7 -17,17 -18,17 -10,-2 z"
       id="path64" />
    <path
       d="m 427,2139 c -13,-8 -15,-21 -11,-72 14,-163 94,-301 225,-386 52,-34 55,-39 43,-56 -8,-10 -14,-27 -14,-38 0,-13 -5,-17 -15,-13 -8,3 -22,9 -30,12 -12,5 -15,-2 -15,-35 0,-40 1,-40 25,-29 27,12 33,28 13,29 -7,0 -3,4 10,9 12,5 22,14 22,20 0,5 8,10 18,11 11,0 12,2 4,6 -10,4 -10,10 2,28 12,18 13,25 3,29 -8,3 -7,8 6,16 9,6 17,20 17,30 0,18 6,22 26,19 8,-1 24,22 24,34 0,4 -9,7 -21,7 -11,0 -18,-4 -15,-9 3,-5 -1,-11 -9,-15 -8,-3 -15,-11 -15,-18 0,-7 -7,-21 -15,-32 -14,-18 -16,-18 -62,12 -44,28 -125,102 -112,102 6,0 134,-33 174,-45 18,-5 23,1 37,44 14,44 14,51 1,51 -8,0 -12,4 -9,9 4,5 -3,7 -14,4 -12,-3 -20,0 -20,6 0,7 -4,10 -9,7 -4,-3 -17,2 -27,10 -16,13 -16,15 -2,10 10,-3 20,-1 23,3 6,10 47,2 55,-10 13,-18 50,4 58,35 7,25 14,31 33,29 13,-1 18,1 11,3 -6,3 -10,10 -6,15 3,5 -2,9 -10,9 -9,0 -16,-4 -16,-10 0,-5 -7,-10 -16,-10 -8,0 -12,4 -9,10 3,6 -1,7 -10,4 -11,-5 -14,-2 -8,12 4,11 3,15 -5,10 -6,-3 -13,-2 -17,4 -3,5 -15,10 -26,10 -14,0 -19,7 -20,28 l -1,27 -7,-30 c -6,-29 -7,-29 -20,-10 -7,11 -10,13 -8,5 4,-12 -7,-19 -39,-26 -24,-6 -44,-8 -44,-5 0,3 -15,7 -33,8 -28,1 -29,0 -9,-7 27,-11 29,-24 2,-17 -11,3 -23,1 -26,-4 -7,-12 20,-11 86,4 30,7 64,13 75,12 11,-1 32,-2 48,-3 17,-1 27,-8 27,-18 0,-9 9,-18 20,-21 21,-6 24,-12 14,-36 -4,-11 -13,-13 -42,-6 -20,4 -68,6 -107,4 -91,-5 -125,1 -161,30 -27,22 -27,24 -5,18 21,-5 22,-4 12,15 -10,18 -8,23 16,36 l 28,15 -45,-2 c -34,-2 -45,2 -48,15 -3,14 5,16 55,11 43,-4 74,0 120,16 34,12 75,21 90,22 24,0 25,1 8,8 -39,16 -133,22 -141,9 -5,-7 -2,-9 8,-6 8,4 21,2 29,-3 21,-13 -7,-29 -52,-29 -70,0 -146,51 -91,62 15,3 15,4 1,10 -8,3 -23,2 -32,-3 z m 143,-249 c 101,-27 172,-51 167,-56 -2,-3 -36,4 -75,15 -39,11 -81,17 -93,14 -15,-4 -20,-3 -15,5 5,8 -1,12 -16,12 -14,0 -33,7 -44,15 -25,19 -13,18 76,-5 z m 135,-70 c 19,0 19,-7 0,-26 -13,-14 -15,-13 -15,3 0,15 -2,16 -10,3 -8,-13 -10,-12 -10,3 0,16 -7,18 -54,14 -63,-6 -70,-2 -49,23 15,17 17,17 69,-1 29,-11 60,-19 69,-19 z"
       id="path65" />
    <path
       d="m 495,2140 c 3,-5 1,-10 -5,-10 -6,0 -8,-4 -5,-10 3,-5 13,-10 21,-10 9,0 12,5 8,11 -4,8 1,9 17,5 23,-7 23,-7 5,8 -22,18 -51,22 -41,6 z"
       id="path66" />
    <path
       d="m 1230,2135 c 0,-21 30,-31 40,-14 11,17 3,29 -21,29 -10,0 -19,-7 -19,-15 z"
       id="path67" />
    <path
       d="m 1305,2111 c 7,-35 7,-35 -31,-20 -42,15 -74,4 -74,-26 0,-14 -4,-25 -8,-25 -17,0 -21,13 -11,32 10,18 9,18 -11,8 -15,-8 -20,-8 -16,-1 4,6 3,11 -3,11 -5,0 -12,-6 -14,-12 -4,-10 -8,-10 -15,1 -8,11 -10,11 -15,0 -4,-10 -6,-10 -6,-1 -1,14 -31,17 -31,2 0,-6 7,-13 15,-16 10,-4 13,-13 10,-25 -4,-11 -2,-19 4,-19 6,0 11,7 11,15 0,8 5,15 11,15 6,0 8,-11 5,-27 -5,-24 2,-33 48,-70 60,-49 66,-51 66,-24 0,13 -9,21 -31,26 -24,5 -30,12 -27,28 1,12 -2,22 -7,22 -6,0 -9,-3 -7,-7 1,-5 -2,-8 -7,-8 -9,0 -21,33 -21,59 0,11 4,9 14,-4 9,-13 26,-19 52,-20 39,0 39,0 36,-37 -2,-27 1,-38 11,-38 9,0 13,10 10,33 -2,25 -1,28 6,12 7,-18 9,-16 15,12 9,37 17,45 35,34 17,-11 -8,-91 -29,-92 -10,0 -11,-2 -2,-6 6,-2 12,-11 12,-19 0,-8 7,-14 15,-14 20,0 19,-26 0,-34 -18,-7 -55,27 -56,52 0,14 -2,14 -9,-3 -7,-16 -2,-26 21,-47 16,-16 36,-28 44,-28 13,0 13,-3 3,-20 -7,-11 -18,-18 -25,-16 -7,3 -15,1 -18,-4 -4,-6 -14,-10 -23,-10 -14,0 -14,2 -3,9 11,7 9,11 -8,21 -15,7 -20,17 -17,27 6,13 4,14 -9,3 -11,-9 -13,-16 -5,-24 5,-5 10,-18 10,-28 0,-13 8,-18 25,-18 30,0 34,-25 7,-39 -22,-12 -64,-3 -75,16 -4,7 -17,13 -27,13 -11,0 -25,9 -32,20 -7,11 -18,20 -25,20 -6,0 -18,6 -25,13 -11,11 -75,47 -84,47 -2,0 2,-14 8,-31 9,-26 12,-29 20,-15 8,14 11,15 33,0 13,-9 27,-24 30,-34 3,-11 11,-18 18,-16 7,1 9,1 5,-1 -22,-13 -4,-31 37,-37 24,-4 47,-11 49,-15 7,-10 -42,-37 -51,-28 -3,4 2,7 12,7 18,0 18,1 -1,15 -10,8 -27,15 -36,15 -15,0 -15,-3 -2,-27 7,-16 14,-36 14,-45 0,-23 0,-23 49,5 84,48 193,170 175,198 -4,7 -3,10 3,6 6,-4 17,10 26,31 11,28 27,43 60,60 46,23 77,28 77,13 0,-5 -8,-7 -17,-5 -15,4 -18,-2 -19,-33 0,-21 -12,-60 -26,-88 -14,-27 -36,-69 -48,-92 -12,-24 -28,-43 -35,-43 -8,0 -17,-9 -20,-20 -3,-11 -10,-20 -15,-20 -5,0 -15,-6 -22,-13 -7,-7 -26,-22 -42,-35 -25,-19 -26,-23 -11,-28 12,-5 23,0 35,16 11,15 22,20 30,15 10,-6 9,-11 -4,-21 -11,-8 -13,-14 -7,-19 6,-3 11,-3 11,1 0,4 8,0 18,-9 25,-23 77,-26 77,-5 0,9 4,20 8,24 4,4 7,20 7,35 0,15 5,31 10,34 20,13 9,25 -22,25 -31,-1 -32,-1 -14,-15 11,-8 16,-18 13,-22 -4,-3 -7,-4 -7,0 0,3 -13,2 -29,-3 -24,-7 -29,-5 -24,6 3,8 9,14 14,14 5,0 9,7 9,15 0,8 7,15 15,15 8,0 15,6 15,13 0,6 11,33 25,59 14,26 25,54 25,63 0,8 5,15 11,15 6,0 8,-7 5,-15 -3,-8 -8,-21 -11,-28 -4,-9 11,-17 47,-26 29,-8 65,-20 80,-27 35,-18 48,-18 48,1 0,17 16,20 25,5 10,-17 22,-11 29,12 4,18 8,20 18,10 6,-6 20,-12 29,-12 10,0 25,-10 33,-22 l 15,-21 10,24 c 17,37 40,148 32,153 -13,8 -41,-22 -35,-38 4,-9 1,-16 -6,-16 -9,0 -11,-10 -7,-32 3,-18 3,-27 0,-20 -4,10 -8,10 -17,-2 -18,-24 -39,-5 -27,25 9,21 10,22 11,4 1,-19 1,-19 11,-1 9,14 8,20 -1,26 -7,4 -10,15 -7,24 4,9 3,16 -2,16 -5,0 -14,-20 -20,-45 -7,-27 -17,-45 -25,-45 -12,0 -12,4 -1,28 18,35 30,112 18,112 -16,0 -63,-25 -63,-33 0,-5 5,-5 12,-1 8,5 9,-4 4,-35 -4,-28 -3,-40 4,-36 5,3 10,3 10,-2 0,-10 -20,-40 -20,-30 0,4 -9,-2 -20,-13 -11,-11 -24,-20 -30,-20 -15,0 -11,62 5,84 8,10 12,22 10,27 -10,14 18,59 37,59 10,0 18,5 18,10 0,5 -3,9 -7,9 -20,-3 -34,2 -28,11 3,6 2,10 -4,10 -5,0 -13,-4 -16,-10 -3,-5 -11,-10 -16,-10 -6,0 -8,4 -5,9 3,4 -7,6 -22,4 -22,-4 -24,-2 -12,7 12,8 9,9 -13,4 -18,-4 -36,0 -52,10 -14,9 -30,14 -34,11 -5,-3 -11,-1 -13,4 -1,4 -14,12 -27,16 -14,4 -21,3 -18,-2 4,-6 -5,-8 -21,-5 -23,4 -24,6 -8,12 15,5 8,10 -27,20 -50,13 -58,25 -30,46 20,14 18,18 -16,29 -22,7 -23,5 -16,-24 z m -45,-31 c 4,0 6,-9 3,-20 -5,-20 -53,-30 -53,-11 0,23 14,42 27,37 8,-3 18,-6 23,-6 z m 104,-44 c -4,-9 10,-17 43,-26 36,-10 42,-15 25,-18 -49,-8 -109,27 -85,51 11,12 23,8 17,-7 z m 12,-46 c 8,0 14,-7 14,-15 0,-18 -12,-19 -28,-3 -9,9 -15,9 -24,-1 -11,-10 -9,-12 7,-9 14,2 20,-3 21,-19 1,-19 -4,-23 -28,-23 -24,0 -29,4 -24,16 3,9 9,27 12,41 4,16 11,22 21,19 8,-3 21,-6 29,-6 z m 254,-41 c 9,-5 -8,-6 -42,-3 -69,8 -76,-1 -13,-17 38,-10 45,-15 45,-36 0,-13 -7,-31 -15,-39 -8,-9 -15,-24 -15,-35 0,-16 -5,-18 -31,-14 -53,10 -67,24 -67,72 0,36 3,43 16,39 43,-13 72,-18 72,-12 0,3 -20,11 -44,17 -30,7 -43,15 -39,24 9,24 95,26 133,4 z m -240,-314 c -19,-7 -30,-14 -23,-14 7,-1 17,-10 23,-21 9,-17 8,-19 -7,-13 -22,9 -43,28 -43,42 0,11 23,18 60,19 21,0 20,-1 -10,-13 z"
       id="path68" />
    <path
       d="m 1360,2091 c 0,-23 36,-35 44,-14 10,24 -5,36 -20,16 -13,-16 -14,-16 -8,0 3,9 1,17 -5,17 -6,0 -11,-8 -11,-19 z"
       id="path69" />
    <path
       d="m 1077,2043 c -4,-3 -7,-23 -7,-44 0,-29 -5,-39 -20,-44 -24,-8 -25,-15 -6,-60 14,-32 36,-48 36,-25 0,10 50,8 69,-4 6,-4 8,-18 5,-32 -5,-20 -2,-24 14,-24 28,0 37,18 19,38 -8,9 -12,23 -9,31 3,10 0,12 -12,8 -9,-4 -16,-2 -16,3 0,6 -3,9 -7,9 -21,-3 -40,3 -63,21 -21,17 -23,21 -10,29 9,7 15,27 15,56 0,25 0,45 -1,45 0,0 -4,-3 -7,-7 z"
       id="path70" />
    <path
       d="m 314,1968 c -4,-6 -2,-14 5,-16 9,-3 8,-7 -2,-16 -8,-6 -18,-27 -21,-47 -5,-30 -3,-37 16,-46 40,-20 81,-25 75,-11 -3,7 -16,43 -28,81 -23,67 -31,77 -45,55 z"
       id="path71" />
    <path
       d="m 847,1863 c -14,-32 -51,-136 -82,-231 -31,-95 -63,-179 -71,-187 -9,-9 -11,-16 -4,-20 7,-4 7,-11 2,-18 -14,-18 -21,-56 -11,-59 10,-4 -37,-158 -53,-173 -8,-7 -9,-5 -4,8 3,11 8,31 11,45 3,15 -6,-4 -20,-43 -14,-38 -31,-74 -38,-80 -7,-5 -19,-25 -26,-42 -7,-18 -16,-33 -20,-33 -4,0 -8,-11 -9,-25 -2,-23 0,-24 18,-15 11,6 18,15 15,20 -9,14 6,39 20,34 8,-3 12,-16 10,-32 -2,-15 -4,-39 -4,-54 -1,-23 -5,-27 -23,-24 -13,3 -26,5 -30,5 -4,1 -5,9 -2,19 5,14 3,14 -11,-3 -16,-19 -16,-15 -13,73 2,53 -1,92 -6,92 -6,0 0,9 12,20 12,12 22,25 22,29 0,12 -104,21 -108,10 -2,-5 -19,-7 -38,-3 -27,5 -34,3 -34,-9 0,-10 -11,-17 -32,-19 -18,-2 -32,-8 -31,-14 1,-7 -7,-20 -17,-29 -24,-22 -25,-43 -5,-72 12,-16 12,-22 2,-26 -6,-3 -2,-6 11,-6 15,-1 22,-7 22,-21 0,-16 -41.05349,-15.80904 -31,-20 23.48064,-9.7883 22.65429,-12.21311 84,-25 137,-21 431,-37 596,-31 80,3 221,8 312,12 49.7093,3.93843 44.687,1.86697 60.5072,6.61575 11.6256,3.55911 22.4507,7.06157 26.9064,13.38425 -3.3546,7.32762 -20.4136,3 -13.4136,13 2,4 20,8 40,9 20,1 52,6 73,11 20,6 60,10 88,10 33.1693,-3.7851 62.4696,6.59705 92.2184,16.00494 L 1607.0665,1010 c -37.5591,-1.564 -58.0665,3 -47.0665,10 8,5 24,7 35,4 15,-4 16,-3 6,4 -7,5 -31,7 -52,5 l -39,-6 v 46 c 0,40 -10,57 -34,57 -1,0 -2,-30 -2,-67 l 1,-68 -77,-15 c -49,-9 -78,-19 -78,-27 0,-7 -4,-13 -10,-13 -5,0 -10,9 -10,20 0,11 5,20 10,20 6,0 10,20 10,45 0,34 -5,47 -20,55 -14,7 -20,7 -20,0 0,-5 5,-10 11,-10 5,0 8,-4 4,-9 -3,-5 -1,-12 5,-16 5,-3 10,-14 10,-23 0,-10 -11,-1 -26,23 -15,22 -23,31 -20,20 6,-18 5,-18 -7,-5 -8,8 -18,26 -22,38 -6,22 -5,23 14,13 14,-8 21,-8 21,-1 0,5 -5,10 -11,10 -26,0 -36,21 -75,150 -9,30 -22,64 -28,75 -21,34 -36,87 -28,99 4,6 7,20 8,31 0,11 4,31 8,45 l 7,25 -15,-25 c -9,-14 -16,-36 -16,-50 0,-14 -4,-20 -8,-14 -9,13 -45,27 -37,15 3,-5 -1,-12 -7,-15 -7,-3 -2,-4 12,-3 16,1 26,-4 28,-14 2,-14 -7,-16 -62,-15 -36,0 -66,5 -66,9 0,5 -28,7 -62,5 -55,-3 -65,-6 -76,-27 -7,-14 -10,-31 -8,-38 8,-20 -61,-17 -72,4 -9,14 -10,14 -16,-5 -5,-15 -16,-22 -32,-22 -27,0 -27,0 -14,34 9,24 14,26 75,26 37,0 65,4 65,10 0,6 -14,10 -31,10 -17,0 -28,4 -24,10 4,6 -5,10 -19,10 -19,0 -26,5 -26,19 0,11 5,21 10,23 6,2 11,14 12,28 0,14 5,39 9,56 l 9,31 108,-1 c 59,-1 119,2 134,6 23,7 27,4 37,-24 16,-46 14,-56 -16,-61 -25,-4 -25,-4 6,-6 30,-1 32,-3 20,-18 -12,-15 -12,-16 2,-11 9,4 20,3 25,-2 5,-5 10,5 11,23 1,26 0,28 -7,12 -8,-19 -9,-19 -9,3 -1,12 4,22 10,22 6,0 9,7 6,15 -4,8 -1,17 5,21 7,5 8,2 3,-6 -5,-9 -4,-11 3,-6 17,10 15,46 -2,46 -7,0 -18,-15 -24,-32 -10,-30 -11,-30 -8,-5 2,17 -1,27 -9,27 -13,0 -25,22 -25,46 0,8 -8,22 -19,33 -10,10 -21,25 -23,32 -4,11 -9,12 -26,2 -17,-10 -26,-10 -46,1 -14,7 -22,17 -18,21 4,5 -1,5 -10,2 -15,-5 -16,-3 -6,19 11,23 16,25 53,20 28,-5 36,-3 25,4 -8,5 -27,10 -42,10 -16,0 -28,5 -28,10 0,6 5,10 11,10 6,0 8,8 5,18 -8,23 9,50 17,28 4,-9 4,-24 1,-33 -5,-14 -4,-15 4,-4 8,11 12,9 22,-9 6,-12 14,-19 17,-16 3,3 1,11 -4,18 -5,7 -15,32 -22,56 -11,40 -14,42 -50,42 -37,0 -39,-2 -64,-57 z m 57,-10 c -22,-95 -40,-148 -50,-146 -5,1 -9,-14 -10,-33 -1,-44 -16,-60 -41,-44 -16,10 -16,11 0,6 18,-6 25,10 6,16 -7,2 -3,27 11,73 42,134 64,185 81,185 15,0 15,-6 3,-57 z m 20,-149 c 11,-4 16,-19 16,-50 0,-43 -1,-44 -32,-44 -54,0 -61,10 -46,58 13,42 27,50 62,36 z m 110,-47 c 13,-20 8,-25 -32,-33 -30,-6 -32,-5 -32,23 0,16 -6,35 -12,41 -9,9 -2,9 27,-1 21,-8 43,-21 49,-30 z m -66,-274 c 2,-25 -1,-33 -12,-33 -18,0 -20,8 -6,30 6,9 5,17 -3,22 -18,12 -32,9 -20,-3 6,-6 9,-19 6,-29 -7,-26 -76,-23 -81,4 -7,36 5,45 60,43 52,-2 53,-3 56,-34 z m 136,12 c -4,-10 0,-15 12,-15 14,0 15,-3 6,-12 -8,-8 -15,-9 -20,-3 -4,6 -16,17 -26,25 -18,14 -19,14 -7,-7 10,-19 9,-23 -4,-23 -8,0 -15,6 -15,13 0,8 -4,7 -10,-3 -8,-12 -12,-13 -19,-2 -7,11 -9,11 -14,-2 -10,-27 -27,-18 -27,14 v 30 h 65 c 53,0 63,-3 59,-15 z m 78,-171 15,-42 -89,2 c -63,1 -88,5 -88,14 0,6 8,12 18,12 25,0 31,7 25,31 -4,16 -14,19 -57,19 -58,0 -82,-11 -73,-34 4,-10 19,-16 42,-16 19,0 35,-5 35,-11 0,-5 -4,-7 -10,-4 -5,3 -14,4 -19,1 -7,-5 -281,-17 -281,-12 0,0 11,35 24,76 l 24,75 45,3 c 36,2 46,0 49,-14 2,-13 18,-17 71,-21 62,-4 67,-3 67,16 0,18 7,20 83,23 l 82,3 11,-40 c 6,-22 18,-59 26,-81 z m -482,42 c 0,-16 -24,-66 -32,-66 -6,0 -7,8 -3,18 4,9 10,25 12,35 4,14 23,25 23,13 z M 493,1153 c -20,-4 -22,-10 -22,-76 v -83 c -1,-7 -12,-9 -27,-6 -18,3 -22,8 -15,15 12,12 15,95 5,121 -3,9 -13,16 -21,16 -8,0 -12,-4 -8,-9 10,-17 -34,-34 -51,-20 -12,10 -13,9 -8,-6 6,-15 5,-16 -15,-4 -29,19 -26,26 8,24 23,-1 28,2 23,14 -5,14 -3,14 11,2 15,-11 17,-11 17,2 0,12 13,15 63,14 34,0 52,-2 40,-4 z m 219,2 c 8,-9 287,-11 281,-2 -2,4 1,7 6,7 6,0 11,-8 11,-17 0,-14 2,-15 9,-4 6,9 22,12 49,8 22,-2 46,1 51,6 8,8 11,8 11,0 0,-6 16,-10 39,-9 42,2 51,-8 51,-63 0,-13 3,-22 6,-18 8,8 49,-52 57,-85 5,-20 2,-27 -19,-37 -14,-6 -29,-9 -33,-7 -4,3 -5,30 -3,60 3,49 1,55 -14,49 -15,-5 -16,-1 -10,30 6,31 4,36 -9,31 -8,-4 -21,-2 -28,3 -16,13 -87,15 -87,3 0,-6 -16,-10 -35,-10 -19,0 -35,-4 -35,-10 0,-5 -22,-10 -50,-10 -27,0 -50,-4 -50,-9 0,-8 120,-6 213,3 23,3 37,0 38,-7 0,-8 2,-8 6,1 2,6 9,12 15,12 7,0 9,-21 6,-55 -3,-30 -1,-52 4,-49 4,3 8,14 8,25 0,10 4,19 9,19 12,0 1,-73 -13,-82 -13,-9 -24,16 -25,55 -1,15 -5,27 -10,27 -5,0 -7,-10 -3,-22 5,-20 3,-21 -10,-10 -18,14 -64,13 -66,-3 -6,-60 9,-55 -162,-54 -86,1 -168,-2 -181,-6 -20,-7 -22,-6 -11,7 10,13 8,15 -14,10 -19,-3 -25,-1 -20,7 4,6 2,11 -3,11 -6,0 -11,4 -11,10 0,6 9,6 25,0 23,-9 24,-8 12,11 -8,13 -21,19 -37,17 -23,-3 -25,1 -28,37 l -3,40 78,-3 c 43,-1 116,4 163,12 l 85,14 -117,1 c -95,1 -122,4 -137,18 -11,9 -18,20 -15,25 3,4 0,8 -5,8 -15,0 -14,-6 5,-35 16,-25 16,-25 -17,-25 -31,0 -32,1 -13,14 18,14 18,15 -3,13 -13,-1 -23,-5 -23,-9 0,-4 -9,-8 -19,-8 -14,0 -18,-5 -14,-21 4,-16 8,-17 14,-7 5,8 8,-6 8,-37 0,-37 -3,-45 -9,-30 -8,19 -9,19 -9,-2 -1,-27 -11,-53 -20,-53 -13,0 2,75 18,87 15,12 15,13 0,7 -23,-7 -30,17 -18,60 8,29 15,36 34,36 14,0 25,5 25,10 0,10 43,14 52,5 z m -387,-66 c 4,-6 13,-8 21,-5 10,4 14,-2 14,-20 0,-14 4,-23 10,-19 6,3 17,0 25,-9 19,-19 19,-26 0,-26 -8,0 -15,5 -15,11 0,5 -4,8 -9,5 -4,-3 -6,-17 -3,-31 3,-19 0,-25 -14,-25 -26,0 -50,17 -40,27 5,4 11,3 13,-4 2,-7 10,-10 18,-7 27,11 4,33 -28,28 -18,-2 -26,-1 -19,2 10,5 8,10 -7,21 -24,16 -27,33 -9,51 15,15 35,15 43,1 z m 1235,-90 c 19,-1 27,-3 17,-6 -29,-7 -89,6 -81,18 4,7 10,7 17,0 6,-6 27,-12 47,-12 z M 427,980 c 14,0 23,-6 23,-15 0,-18 -9,-19 -44,-5 -14,5 -26,17 -26,27 0,13 3,14 12,5 7,-7 22,-12 35,-12 z m 731,-27 c 2,-8 -6,-13 -22,-13 -14,0 -26,6 -26,13 0,8 -4,7 -10,-3 -8,-13 -10,-12 -10,3 0,15 7,18 32,15 17,-2 33,-9 36,-15 z"
       id="path72"
       sodipodi:nodetypes="csssccccccccscccccccccccscsccsccccccssccccccscccccccccsscccssssscssccscccccssccsccccsccccccscccccscsssssscccccccccscscccsccccsccssscsccscccssscccscsscsccscccccsccsscccssscccsccscccccsscccsscscscsccccsssscssccccccccsccccssccscsccscscccccccsccccssccsscsccccccsccssssscccsccssccsccccccccsscccccccccccscsccssscsccscccsscccsccssccscsccccsccccscsscssscsscscc" />
    <path
       d="m 873,1393 c -3,-10 -8,-21 -10,-25 -2,-5 1,-8 6,-8 6,0 11,7 11,16 0,13 3,14 14,5 11,-9 16,-9 21,0 4,6 1,15 -6,20 -21,13 -29,11 -36,-8 z"
       id="path73" />
    <path
       d="m 1061,1046 c 8,-9 100,-12 105,-4 3,4 -21,8 -52,8 -32,0 -55,-2 -53,-4 z"
       id="path74" />
    <path
       d="m 860,990 c 34,-11 90,-12 90,-2 0,5 -26,9 -57,9 -42,1 -51,-1 -33,-7 z"
       id="path75" />
    <path
       d="m 286,1073 c -10,-26 11,-40 31,-20 9,9 13,20 9,24 -5,5 -11,2 -13,-4 -3,-7 -9,-13 -14,-13 -4,0 -6,7 -3,15 4,8 4,15 1,15 -3,0 -8,-8 -11,-17 z"
       id="path76" />
    <path
       d="m 416,1822 c -4,-7 2,-22 13,-34 12,-12 21,-27 21,-32 1,-15 50,-50 58,-41 3,3 -8,17 -26,31 -29,23 -47,54 -22,39 6,-3 10,-1 10,5 0,7 -7,9 -15,6 -10,-4 -19,2 -24,16 -5,14 -10,17 -15,10 z"
       id="path78" />
    <path
       d="m 1060,1654 c 0,-8 5,-12 10,-9 6,3 10,-2 10,-11 0,-14 3,-15 11,-7 7,7 9,19 6,27 -8,21 -37,21 -37,0 z"
       id="path79" />
    <path
       d="m 1277,1573 c -4,-3 -32,-6 -62,-6 -30,0 -55,-4 -55,-8 0,-5 12,-9 26,-9 15,0 23,-4 19,-11 -4,-6 -13,-8 -21,-5 -22,9 -21,-52 2,-112 l 14,-37 -5,35 c -2,19 -7,49 -10,66 -6,27 -4,32 17,37 12,4 38,7 56,7 28,0 32,-3 32,-25 0,-18 5,-25 20,-25 17,0 20,7 20,50 0,46 -2,50 -23,50 -13,0 -27,-3 -30,-7 z"
       id="path80" />
    <path
       d="m 636,1476 c -9,-21 -16,-41 -16,-45 0,-4 -16,-5 -35,-3 l -35,4 v -46 c 0,-39 3,-46 20,-46 17,0 19,-5 14,-32 -3,-18 -14,-57 -24,-85 -10,-30 -14,-53 -8,-53 5,0 12,9 15,20 3,11 9,20 14,20 4,0 8,8 8,18 0,9 4,38 9,65 5,29 5,47 -1,47 -5,0 -6,7 -3,16 4,12 2,15 -9,10 -9,-3 -15,0 -15,9 0,8 6,15 13,15 8,0 7,4 -3,11 -12,8 -8,10 17,7 17,-3 31,-2 31,1 -1,3 7,23 16,44 9,22 15,44 13,50 -2,7 -12,-5 -21,-27 z"
       id="path81" />
    <path
       d="m 1338,1433 c -3,-27 -5,-28 -64,-31 -55,-3 -61,-5 -57,-22 4,-15 16,-19 64,-22 57,-3 60,-2 65,22 10,43 12,46 13,13 1,-17 -3,-35 -9,-38 -5,-3 -10,-17 -10,-31 0,-21 4,-25 23,-22 21,3 22,8 22,78 0,69 -2,75 -22,78 -17,3 -22,-2 -25,-25 z"
       id="path82" />
    <path
       d="m 1216,1333 c 7,-16 14,-40 14,-55 0,-15 5,-30 10,-33 6,-3 10,-14 10,-24 0,-10 7,-32 15,-47 l 15,-29 v 25 c 0,26 -39,155 -53,178 -16,24 -26,11 -11,-15 z"
       id="path83" />
    <path
       d="m 1365,1260 c 3,-6 -1,-7 -9,-4 -11,4 -16,0 -16,-15 0,-14 6,-21 18,-21 25,0 30,-6 25,-33 -4,-20 -9,-22 -50,-18 -35,2 -44,0 -41,-10 3,-10 25,-14 74,-14 h 70 l -5,30 c -5,30 -5,30 -12,5 l -7,-25 -1,28 c -1,23 4,28 29,34 33,6 42,36 14,47 -26,10 -96,7 -89,-4 z"
       id="path84" />
  </g>
</svg>
